<svg xmlns="http://www.w3.org/2000/svg" xmlns:xlink="http://www.w3.org/1999/xlink" width="1080" zoomAndPan="magnify" viewBox="0 0 810 809.999993" height="1080" preserveAspectRatio="xMidYMid meet" version="1.0"><defs><g/><clipPath id="3bffb32256"><path d="M 319 58.566406 L 424 58.566406 L 424 134 L 319 134 Z M 319 58.566406 " clip-rule="nonzero"/></clipPath></defs><g clip-path="url(#3bffb32256)"><path fill="#c9c1ad" d="M 396.988281 62.59375 C 380.105469 71.054688 363.171875 79.542969 347.414062 89.957031 C 341.359375 93.960938 335.417969 98.300781 330.6875 103.804688 C 323.722656 111.910156 319.640625 122.445312 319.324219 133.128906 C 320.261719 125.75 321.195312 118.378906 322.136719 111.003906 C 322.4375 108.617188 322.765625 106.148438 324 104.085938 C 325.511719 101.550781 328.167969 99.957031 330.714844 98.472656 C 351.511719 86.332031 372.304688 74.183594 393.101562 62.042969 C 395.910156 60.398438 398.878906 58.714844 402.128906 58.632812 C 404.101562 58.585938 406.03125 59.132812 407.925781 59.679688 C 413.226562 61.207031 418.527344 62.730469 423.828125 64.257812 C 388.332031 83.527344 354.585938 106.003906 323.125 131.328125 C 322.074219 132.179688 319.605469 131.835938 320.449219 130.773438 C 325.777344 125.792969 331.113281 120.808594 336.90625 116.378906 C 362.308594 96.960938 396.046875 88.492188 416.847656 64.214844 C 413.222656 64.875 409.398438 64.394531 406.050781 62.84375 C 404.597656 62.179688 403.175781 61.296875 401.574219 61.214844 C 399.964844 61.125 398.433594 61.871094 396.988281 62.59375 " fill-opacity="1" fill-rule="nonzero"/></g><path fill="#c9c1ad" d="M 324.5625 106.53125 C 333.144531 108.210938 341.890625 109.070312 350.640625 109.105469 C 343.472656 107.804688 336.300781 106.5 329.132812 105.195312 C 327.070312 104.820312 324.054688 105.191406 324.097656 107.28125 L 324.5625 106.53125 " fill-opacity="1" fill-rule="nonzero"/><path fill="#c9c1ad" d="M 360.433594 82.46875 C 369.910156 82.988281 379.335938 84.410156 388.542969 86.710938 C 381.039062 84.375 373.535156 82.039062 366.039062 79.710938 C 365.417969 79.515625 364.769531 79.320312 364.128906 79.421875 C 362.054688 79.746094 361.132812 82.863281 359.035156 82.796875 C 358.972656 82.0625 358.910156 81.320312 358.847656 80.582031 L 360.433594 82.46875 " fill-opacity="1" fill-rule="nonzero"/><path fill="#c9c1ad" d="M 319.71875 134.707031 C 344.789062 133.457031 369.949219 134.0625 394.929688 136.515625 C 400.621094 111.738281 417.199219 90.40625 422.160156 65.472656 C 419.738281 67.027344 417.324219 68.574219 414.902344 70.128906 C 383.933594 90.035156 353.40625 110.640625 323.363281 131.90625 C 355.089844 111.9375 386.832031 91.964844 418.566406 71.996094 C 408.054688 92.074219 398.898438 112.859375 391.1875 134.171875 C 387.484375 130.90625 382.085938 130.332031 377.1875 130.9375 C 372.289062 131.542969 367.546875 133.152344 362.636719 133.660156 C 354.082031 134.539062 345.546875 132.039062 336.953125 131.859375 C 331.097656 131.734375 325.21875 132.710938 319.71875 134.707031 " fill-opacity="1" fill-rule="nonzero"/><path fill="#c9c1ad" d="M 360.171875 81.261719 C 356.140625 89.371094 353.511719 98.175781 352.441406 107.167969 C 356.597656 98.082031 360.125 88.703125 362.984375 79.125 C 361.90625 79.429688 360.824219 79.730469 359.738281 80.03125 L 360.171875 81.261719 " fill-opacity="1" fill-rule="nonzero"/><path fill="#c9c1ad" d="M 394.695312 61.480469 C 392.628906 69.351562 390.929688 77.316406 389.601562 85.34375 C 391.628906 83.359375 392.480469 80.503906 393.257812 77.777344 C 394.9375 71.871094 396.617188 65.960938 398.292969 60.054688 C 396.414062 60.625 394.667969 61.640625 393.25 62.996094 L 394.695312 61.480469 " fill-opacity="1" fill-rule="nonzero"/><path fill="#c9c1ad" d="M 388.449219 98.894531 C 390.597656 109.699219 391.378906 120.777344 390.773438 131.78125 C 388.308594 128.578125 384.800781 126.367188 381.371094 124.222656 C 373.238281 119.140625 365.105469 114.0625 356.972656 108.980469 C 356.210938 110.644531 354.652344 111.914062 352.875 112.332031 C 356.984375 112.832031 360.679688 114.996094 364.238281 117.109375 C 373.441406 122.570312 382.640625 128.035156 391.84375 133.5 C 391.484375 118.34375 390.8125 103.199219 389.835938 88.078125 C 387.023438 90.652344 387.707031 95.15625 388.449219 98.894531 " fill-opacity="1" fill-rule="nonzero"/><path fill="#c9c1ad" d="M 387.039062 135.609375 C 389.542969 138.527344 394.230469 139.703125 397.40625 137.527344 C 400.585938 135.355469 400.757812 129.699219 397.339844 127.929688 C 395.941406 129.953125 399.046875 133.128906 397.421875 134.980469 C 396.933594 135.542969 396.148438 135.734375 395.410156 135.875 C 392.722656 136.386719 389.964844 136.539062 387.242188 136.335938 C 387.421875 137.027344 388.015625 137.59375 388.714844 137.746094 L 387.039062 135.609375 " fill-opacity="1" fill-rule="nonzero"/><path fill="#c9c1ad" d="M 387.367188 138.722656 C 386.511719 139.820312 387.191406 141.578125 388.410156 142.257812 C 389.636719 142.933594 391.144531 142.792969 392.503906 142.4375 C 398.085938 140.980469 402.574219 135.984375 403.421875 130.28125 C 401.914062 129.964844 400.40625 129.644531 398.898438 129.332031 C 401.398438 129.894531 402.460938 133.183594 401.492188 135.546875 C 400.515625 137.914062 398.175781 139.421875 395.820312 140.414062 C 394.339844 141.046875 392.667969 141.535156 391.136719 141.042969 C 389.605469 140.550781 388.441406 138.691406 389.21875 137.277344 C 387.957031 137.914062 387.183594 139.394531 387.390625 140.785156 C 388.078125 140.550781 388.769531 140.320312 389.464844 140.085938 L 387.367188 138.722656 " fill-opacity="1" fill-rule="nonzero"/><path fill="#c9c1ad" d="M 402.488281 133.945312 C 401.550781 132.675781 403.140625 131.085938 404.523438 130.355469 C 430.003906 116.757812 460.21875 111.949219 488.515625 117.75 C 516.804688 123.558594 542.886719 140.101562 559.523438 163.703125 C 562.417969 167.8125 565.03125 172.113281 567.480469 176.507812 C 569.0625 179.359375 570.589844 182.25 572.019531 185.207031 C 564.628906 170.855469 552.335938 159.625 540.335938 148.765625 C 532.738281 141.902344 525.085938 134.988281 516.257812 129.8125 C 499.304688 119.871094 478.867188 116.960938 459.277344 118.722656 C 439.691406 120.496094 420.765625 126.691406 402.488281 133.945312 " fill-opacity="1" fill-rule="nonzero"/><path fill="#c9c1ad" d="M 573.984375 189.410156 C 573.4375 188.183594 572.863281 186.957031 572.28125 185.742188 C 572.429688 186.03125 572.578125 186.316406 572.71875 186.605469 C 573.160156 187.53125 573.601562 188.46875 573.984375 189.410156 " fill-opacity="1" fill-rule="nonzero"/><path fill="#c9c1ad" d="M 431.574219 353.738281 C 431.410156 354.09375 431.257812 354.4375 431.113281 354.777344 C 430.320312 354.554688 429.542969 354.324219 428.753906 354.085938 C 422.28125 352.179688 415.867188 350.007812 409.507812 347.8125 C 403.929688 345.875 398.316406 343.898438 393.175781 340.988281 C 379.359375 333.195312 370.035156 319.484375 362.015625 305.804688 C 357.765625 298.554688 353.734375 291.136719 350.515625 283.378906 C 343.195312 265.765625 340.242188 246.386719 341.773438 227.390625 C 341.789062 227.3125 341.789062 227.238281 341.800781 227.160156 C 342.246094 221.75 343.058594 216.371094 344.238281 211.074219 C 344.535156 209.71875 344.859375 208.378906 345.214844 207.042969 C 345.222656 206.960938 345.246094 206.882812 345.269531 206.804688 C 351.875 181.613281 366.945312 158.722656 387.457031 142.667969 C 388.902344 141.519531 392.0625 141.433594 391.535156 143.203125 C 382.453125 147.347656 376.625 156.214844 371.285156 164.652344 C 365.03125 174.515625 358.753906 184.472656 353.941406 195.082031 C 353.8125 195.355469 353.6875 195.644531 353.574219 195.929688 C 352.589844 198.125 351.683594 200.34375 350.847656 202.613281 C 350.320312 204.03125 349.832031 205.464844 349.382812 206.902344 C 348.949219 208.242188 348.546875 209.59375 348.175781 210.945312 C 346.746094 216.152344 345.742188 221.453125 345.128906 226.796875 C 345.109375 226.933594 345.097656 227.066406 345.089844 227.207031 C 341.5625 259.183594 352.152344 292.761719 371.546875 318.890625 C 375.535156 324.253906 379.894531 329.394531 385.164062 333.503906 C 392.214844 338.996094 400.59375 342.445312 408.902344 345.707031 C 415.582031 348.335938 422.316406 350.886719 429.167969 353.003906 C 429.964844 353.261719 430.769531 353.511719 431.574219 353.738281 " fill-opacity="1" fill-rule="nonzero"/><path fill="#c9c1ad" d="M 447.386719 357.320312 C 447.550781 357.34375 447.722656 357.367188 447.882812 357.390625 C 447.722656 357.8125 447.558594 358.222656 447.402344 358.636719 C 446.589844 358.5 445.785156 358.339844 444.980469 358.175781 C 445.125 357.789062 445.257812 357.390625 445.382812 356.988281 C 446.046875 357.113281 446.726562 357.21875 447.386719 357.320312 " fill-opacity="1" fill-rule="nonzero"/><path fill="#c9c1ad" d="M 584.503906 255.167969 C 582.855469 264.507812 579.636719 273.511719 575.730469 282.152344 C 565.960938 303.6875 551.523438 323.351562 532.683594 337.667969 C 513.851562 352 490.496094 360.777344 466.820312 360.578125 C 464.089844 360.558594 461.386719 360.421875 458.683594 360.183594 C 457.046875 360.042969 455.417969 359.859375 453.796875 359.648438 C 453.863281 359.449219 453.929688 359.253906 454 359.0625 C 454.113281 358.738281 454.226562 358.433594 454.332031 358.109375 C 455.980469 358.25 457.640625 358.339844 459.304688 358.375 C 482.921875 359.027344 506.683594 351.3125 526.140625 337.796875 C 548.890625 322.003906 565.933594 298.714844 576.273438 273.03125 C 578.707031 266.980469 580.796875 260.75 581.976562 254.34375 C 584.160156 242.382812 583.117188 230.054688 581.332031 218.027344 C 579.886719 208.300781 577.929688 198.535156 574.042969 189.523438 C 583.394531 210.222656 588.445312 232.988281 584.503906 255.167969 " fill-opacity="1" fill-rule="nonzero"/><path fill="#c9c1ad" d="M 355.582031 224.824219 C 355.523438 225.253906 355.476562 225.6875 355.441406 226.117188 C 355.394531 226.53125 355.351562 226.933594 355.316406 227.34375 C 355.210938 228.5 355.121094 229.648438 355.054688 230.800781 C 355.097656 229.648438 355.167969 228.5 355.269531 227.34375 C 355.316406 226.941406 355.363281 226.53125 355.394531 226.117188 C 355.457031 225.6875 355.507812 225.265625 355.582031 224.824219 " fill-opacity="1" fill-rule="nonzero"/><path fill="#c9c1ad" d="M 401.238281 149.109375 C 393.757812 159.195312 386.265625 169.277344 378.773438 179.359375 C 374.625 184.957031 370.425781 190.664062 366.757812 196.617188 C 366.1875 197.507812 365.644531 198.410156 365.121094 199.320312 C 363.496094 202.085938 361.992188 204.910156 360.691406 207.808594 C 360.21875 208.835938 359.769531 209.871094 359.359375 210.914062 C 357.671875 215.109375 356.40625 219.460938 355.695312 223.980469 C 355.660156 224.175781 355.640625 224.355469 355.613281 224.550781 C 356.140625 219.953125 356.941406 215.394531 358.054688 210.902344 C 358.273438 209.972656 358.511719 209.046875 358.765625 208.128906 C 358.820312 207.925781 358.878906 207.726562 358.9375 207.523438 C 359.722656 204.683594 360.632812 201.867188 361.675781 199.109375 C 362.0625 198.058594 362.464844 197.003906 362.898438 195.976562 C 370.664062 176.964844 383.964844 160.164062 401.238281 149.109375 " fill-opacity="1" fill-rule="nonzero"/><path fill="#c9c1ad" d="M 435.398438 342.789062 C 435.351562 342.96875 435.292969 343.152344 435.246094 343.335938 C 434.230469 343.09375 433.210938 342.855469 432.199219 342.589844 C 412.324219 337.484375 393.78125 328.035156 380.46875 312.707031 C 372.511719 303.542969 366.726562 292.636719 362.566406 281.226562 C 356.714844 265.203125 354.03125 247.945312 355.054688 230.9375 C 354.824219 238.011719 355.773438 245.132812 357.136719 252.101562 C 361.054688 272.140625 368.5 291.742188 380.824219 308.027344 C 393.15625 324.3125 410.632812 337.121094 430.519531 341.800781 C 431.101562 341.9375 431.699219 342.078125 432.292969 342.191406 C 433.324219 342.421875 434.355469 342.617188 435.398438 342.789062 " fill-opacity="1" fill-rule="nonzero"/><path fill="#c9c1ad" d="M 451.777344 344.253906 C 451.628906 344.902344 451.476562 345.546875 451.320312 346.1875 C 450.367188 346.070312 449.417969 345.945312 448.46875 345.804688 C 448.59375 345.257812 448.707031 344.695312 448.8125 344.148438 C 449.792969 344.195312 450.777344 344.226562 451.777344 344.253906 " fill-opacity="1" fill-rule="nonzero"/><path fill="#c9c1ad" d="M 563.953125 266.730469 C 557.289062 285.066406 546.28125 301.550781 534.070312 316.796875 C 528.503906 323.753906 522.570312 330.574219 515.25 335.667969 C 500.273438 346.09375 481.101562 348.21875 462.785156 347.214844 C 461.847656 347.15625 460.90625 347.097656 459.96875 347.03125 C 459.363281 346.984375 458.761719 346.941406 458.15625 346.894531 C 458.445312 346.023438 458.707031 345.152344 458.972656 344.285156 C 460.527344 344.273438 462.085938 344.253906 463.644531 344.214844 C 464.101562 344.207031 464.558594 344.195312 465.019531 344.179688 C 476.816406 343.882812 488.945312 343.171875 499.660156 338.230469 C 510.09375 333.414062 518.355469 324.980469 526.3125 316.679688 C 541.410156 300.941406 556.851562 284.316406 563.394531 263.511719 C 570.839844 239.886719 565.636719 213.804688 554.960938 191.457031 C 550.035156 181.15625 543.90625 171.296875 535.777344 163.28125 C 529.691406 157.28125 522.554688 152.386719 515.011719 148.367188 C 480.714844 130.15625 436.929688 131.246094 403.585938 151.125 C 406.734375 144.363281 414.546875 141.300781 421.722656 139.234375 C 447.480469 131.78125 475.75 129.023438 500.746094 138.742188 C 517.800781 145.378906 532.296875 157.441406 544.378906 171.171875 C 554.214844 182.355469 562.773438 194.992188 567.074219 209.25 C 572.707031 227.9375 570.621094 248.378906 563.953125 266.730469 " fill-opacity="1" fill-rule="nonzero"/><path fill="#c9c1ad" d="M 438.308594 324.828125 C 438.28125 325.277344 438.261719 325.726562 438.226562 326.179688 C 436.96875 325.8125 435.707031 325.414062 434.46875 324.988281 C 411.9375 317.332031 392.226562 301.074219 381.742188 279.65625 C 374.328125 264.507812 371.789062 247.292969 373.6875 230.558594 C 373.703125 230.480469 373.714844 230.398438 373.722656 230.320312 C 374.308594 225.253906 375.304688 220.210938 376.703125 215.308594 C 376.78125 215.042969 376.855469 214.765625 376.933594 214.503906 C 378.246094 210.042969 379.886719 205.679688 381.847656 201.480469 C 381.960938 201.230469 382.078125 200.976562 382.191406 200.726562 C 386.460938 191.765625 392.179688 183.535156 399.257812 176.53125 C 395.226562 184.199219 391.183594 191.851562 387.136719 199.523438 C 386.691406 200.371094 386.246094 201.214844 385.796875 202.066406 C 385.59375 202.460938 385.386719 202.851562 385.191406 203.253906 C 383.152344 207.167969 381.214844 211.125 379.636719 215.238281 C 379.5 215.578125 379.367188 215.933594 379.242188 216.277344 C 379.050781 216.792969 378.867188 217.308594 378.695312 217.835938 C 372.691406 235.632812 375.015625 255.660156 383.058594 272.640625 C 391.105469 289.613281 404.523438 303.6875 419.933594 314.449219 C 424.550781 317.675781 429.429688 320.632812 434.515625 323.101562 C 435.761719 323.707031 437.035156 324.28125 438.308594 324.828125 " fill-opacity="1" fill-rule="nonzero"/><path fill="#c9c1ad" d="M 451.605469 329.039062 C 451.304688 329.007812 451.019531 328.960938 450.730469 328.925781 C 450.746094 328.90625 450.746094 328.878906 450.730469 328.859375 C 451.019531 328.925781 451.320312 328.984375 451.605469 329.039062 " fill-opacity="1" fill-rule="nonzero"/><path fill="#c9c1ad" d="M 453.988281 329.335938 C 453.988281 329.382812 453.988281 329.429688 453.976562 329.476562 C 453.183594 329.351562 452.398438 329.210938 451.605469 329.039062 C 452.398438 329.15625 453.183594 329.25 453.988281 329.335938 " fill-opacity="1" fill-rule="nonzero"/><path fill="#c9c1ad" d="M 472.089844 329.375 C 470.480469 329.660156 468.871094 329.875 467.242188 330.015625 C 465.84375 330.140625 464.445312 330.199219 463.035156 330.207031 L 462.421875 330.207031 C 462.441406 330.082031 462.460938 329.957031 462.476562 329.828125 C 464.078125 329.855469 465.679688 329.828125 467.289062 329.75 C 468.890625 329.671875 470.492188 329.558594 472.089844 329.375 " fill-opacity="1" fill-rule="nonzero"/><path fill="#c9c1ad" d="M 551.78125 238.957031 C 551.523438 248.859375 551.058594 258.929688 547.710938 268.246094 C 542.214844 283.59375 529.65625 295.15625 517.539062 306.0625 C 510.296875 312.582031 502.9375 319.1875 494.171875 323.429688 C 487.835938 326.5 480.941406 328.253906 473.96875 329.15625 C 473.347656 329.238281 472.730469 329.316406 472.109375 329.375 C 482.785156 327.488281 492.949219 322.578125 501.8125 316.246094 C 513.164062 308.132812 522.667969 297.75 531.960938 287.335938 C 535.566406 283.296875 539.199219 279.175781 541.796875 274.429688 C 544.890625 268.761719 546.429688 262.402344 547.480469 256.035156 C 552.335938 226.828125 546.070312 193.664062 523.300781 174.710938 C 516.476562 169.035156 508.523438 164.902344 500.65625 160.804688 C 490.105469 155.335938 479.050781 149.726562 467.164062 149.660156 C 461.171875 149.613281 455.273438 151 449.464844 152.511719 C 431.890625 157.097656 414.105469 163.175781 400.460938 175.144531 C 420.253906 155.574219 449.484375 145.984375 477.046875 150.011719 C 504.605469 154.042969 529.855469 171.601562 543.210938 196.019531 C 546.429688 201.894531 548.992188 208.15625 550.382812 214.695312 C 552.066406 222.640625 551.984375 230.847656 551.78125 238.957031 " fill-opacity="1" fill-rule="nonzero"/><path fill="#c9c1ad" d="M 243.800781 383.058594 C 247.285156 388.851562 251.191406 394.367188 255.53125 399.503906 C 252.941406 396.929688 250.539062 394.171875 248.457031 391.160156 C 246.691406 388.589844 245.167969 385.863281 243.800781 383.058594 " fill-opacity="1" fill-rule="nonzero"/><path fill="#c9c1ad" d="M 306.183594 204.640625 C 311.617188 202.738281 317.183594 200.839844 322.808594 199.558594 L 299.933594 206.996094 C 300.519531 206.710938 301.113281 206.449219 301.707031 206.195312 C 303.207031 205.679688 304.699219 205.164062 306.183594 204.640625 " fill-opacity="1" fill-rule="nonzero"/><path fill="#c9c1ad" d="M 238.9375 371.546875 C 240.457031 375.417969 242.007812 379.304688 243.800781 383.058594 C 239.910156 376.582031 236.527344 369.769531 233.652344 362.800781 C 228.144531 349.421875 224.363281 335.234375 223.492188 320.789062 C 221.625 289.625 233.894531 258.164062 255.28125 235.414062 C 267.308594 222.617188 282.121094 212.558594 298.222656 205.625 C 306.300781 202.15625 314.722656 199.453125 323.316406 197.578125 C 325.542969 197.085938 327.917969 196.859375 330.332031 196.734375 C 320.527344 198.953125 310.90625 202.125 301.707031 206.195312 C 298.613281 207.285156 295.519531 208.359375 292.429688 209.433594 L 299.933594 206.996094 C 276.332031 217.75 255.605469 234.417969 241.789062 256.238281 C 237.675781 262.730469 234.191406 269.621094 231.398438 276.785156 C 226.617188 289.039062 223.871094 302.167969 224.203125 315.332031 C 224.695312 334.796875 231.8125 353.417969 238.9375 371.546875 " fill-opacity="1" fill-rule="nonzero"/><path fill="#c9c1ad" d="M 331.71875 196.664062 C 331.261719 196.675781 330.792969 196.695312 330.332031 196.734375 C 331.492188 196.457031 332.648438 196.207031 333.8125 195.976562 L 331.71875 196.664062 " fill-opacity="1" fill-rule="nonzero"/><path fill="#c9c1ad" d="M 337.789062 195.207031 C 336.464844 195.449219 335.132812 195.699219 333.8125 195.976562 L 335.222656 195.519531 C 336.082031 195.402344 336.933594 195.300781 337.789062 195.207031 " fill-opacity="1" fill-rule="nonzero"/><path fill="#c9c1ad" d="M 322.808594 199.558594 L 331.71875 196.664062 C 337.402344 196.398438 343.230469 196.476562 347.996094 194.742188 C 348.875 196.054688 347.765625 197.957031 346.277344 198.515625 C 344.789062 199.066406 343.125 198.734375 341.5625 198.480469 C 335.292969 197.507812 329.019531 198.152344 322.808594 199.558594 " fill-opacity="1" fill-rule="nonzero"/><path fill="#c9c1ad" d="M 352.679688 195.011719 C 353.101562 195.023438 353.515625 195.050781 353.941406 195.082031 C 353.8125 195.355469 353.6875 195.644531 353.574219 195.929688 C 353.265625 195.652344 352.96875 195.347656 352.679688 195.011719 " fill-opacity="1" fill-rule="nonzero"/><path fill="#c9c1ad" d="M 366.757812 196.617188 C 366.1875 197.507812 365.644531 198.410156 365.121094 199.320312 C 363.941406 199.292969 362.78125 199.234375 361.675781 199.109375 C 362.0625 198.058594 362.464844 197.003906 362.898438 195.976562 C 364.195312 196.160156 365.472656 196.363281 366.757812 196.617188 " fill-opacity="1" fill-rule="nonzero"/><path fill="#c9c1ad" d="M 467.972656 324.417969 C 467.851562 326.203125 467.605469 327.988281 467.289062 329.75 C 467.277344 329.828125 467.25 329.921875 467.242188 330.015625 C 466.65625 333.160156 465.832031 336.285156 464.980469 339.371094 C 464.550781 340.988281 464.101562 342.605469 463.644531 344.214844 C 463.359375 345.210938 463.074219 346.21875 462.785156 347.214844 C 461.683594 350.945312 460.542969 354.679688 459.304688 358.375 C 459.097656 358.980469 458.902344 359.589844 458.683594 360.183594 C 453.070312 376.488281 445.625 392.066406 433.835938 404.472656 C 419.933594 419.113281 400.964844 428.152344 381.433594 433.292969 C 344.113281 443.109375 301.640625 438.613281 271.292969 414.804688 C 265.511719 410.265625 260.261719 405.113281 255.53125 399.503906 C 257.9375 401.910156 260.480469 404.171875 263.070312 406.351562 C 271.886719 413.800781 281.304688 420.644531 291.683594 425.703125 C 327.824219 443.304688 372.109375 437.019531 407.632812 418.195312 C 417.621094 412.894531 427.261719 406.554688 434.59375 397.972656 C 443.929688 387.042969 448.984375 373.207031 453.796875 359.648438 C 453.863281 359.449219 453.929688 359.253906 454 359.0625 C 454.113281 358.738281 454.226562 358.433594 454.332031 358.109375 C 455.648438 354.402344 456.953125 350.660156 458.15625 346.894531 C 458.445312 346.023438 458.707031 345.152344 458.972656 344.285156 C 460.390625 339.640625 461.597656 334.945312 462.421875 330.207031 C 462.441406 330.082031 462.460938 329.957031 462.476562 329.828125 C 463.199219 325.585938 463.597656 321.304688 463.550781 316.976562 C 463.417969 305.394531 460.035156 294.125 456.625 283.046875 C 452.625 270.023438 448.398438 256.726562 440.152344 245.859375 C 432.625 235.949219 422.203125 228.695312 411.960938 221.609375 C 404.65625 216.554688 397.34375 211.496094 390.042969 206.449219 C 388.464844 205.351562 386.851562 204.238281 385.191406 203.253906 C 384.101562 202.59375 382.988281 201.992188 381.847656 201.480469 C 381.960938 201.230469 382.078125 200.976562 382.191406 200.726562 C 383.402344 201.148438 384.609375 201.597656 385.796875 202.066406 C 401.835938 208.289062 416.5 218.292969 428.410156 230.742188 C 448.171875 251.414062 460.628906 278.410156 466.292969 306.4375 C 467.492188 312.355469 468.398438 318.402344 467.972656 324.417969 " fill-opacity="1" fill-rule="nonzero"/><path fill="#c9c1ad" d="M 427.222656 250.253906 C 417.230469 238.660156 404.984375 228.949219 391.410156 221.839844 C 387.457031 219.769531 383.390625 217.914062 379.242188 216.277344 C 378.398438 215.933594 377.546875 215.613281 376.703125 215.308594 C 376.78125 215.042969 376.855469 214.765625 376.933594 214.503906 C 377.835938 214.734375 378.742188 214.984375 379.636719 215.238281 C 398.683594 220.871094 415.109375 234.015625 427.222656 250.253906 " fill-opacity="1" fill-rule="nonzero"/><path fill="#c9c1ad" d="M 360.691406 207.808594 C 360.21875 208.835938 359.769531 209.871094 359.359375 210.914062 C 358.925781 210.914062 358.488281 210.902344 358.054688 210.902344 C 358.273438 209.972656 358.511719 209.046875 358.765625 208.128906 C 358.820312 207.925781 358.878906 207.726562 358.9375 207.523438 C 359.519531 207.601562 360.105469 207.695312 360.691406 207.808594 " fill-opacity="1" fill-rule="nonzero"/><path fill="#c9c1ad" d="M 453.988281 329.335938 C 453.988281 329.382812 453.988281 329.429688 453.976562 329.476562 C 453.597656 334.457031 452.867188 339.398438 451.777344 344.253906 C 451.628906 344.902344 451.476562 345.546875 451.320312 346.1875 C 450.394531 349.988281 449.246094 353.722656 447.882812 357.390625 C 447.722656 357.8125 447.558594 358.222656 447.402344 358.636719 C 445.164062 364.359375 442.410156 369.863281 439.097656 375.0625 C 431.066406 387.660156 420.183594 398.210938 408.46875 407.480469 C 402.785156 411.980469 396.863281 416.214844 390.367188 419.441406 C 369.746094 429.710938 345.269531 428.929688 322.714844 424.207031 C 304.375 420.367188 286.175781 413.886719 271.628906 402.082031 C 251.03125 385.347656 239.726562 359.355469 235.359375 333.195312 C 234.320312 326.960938 233.621094 320.632812 233.871094 314.3125 C 234.179688 306.359375 235.980469 298.527344 237.972656 290.816406 C 241.613281 276.796875 246.070312 262.699219 254.398438 250.828125 C 269.75 228.949219 296.105469 217.546875 322.03125 210.980469 C 329.554688 209.066406 337.414062 207.511719 345.214844 207.042969 C 346.597656 206.949219 347.996094 206.902344 349.382812 206.902344 C 348.949219 208.242188 348.546875 209.59375 348.175781 210.945312 C 346.863281 210.96875 345.558594 211.015625 344.238281 211.074219 C 335.167969 211.46875 326.144531 212.464844 317.25 214.367188 C 299.199219 218.222656 281.671875 225.992188 268.246094 238.660156 C 248.636719 257.203125 239.4375 284.730469 238.175781 311.671875 C 237.828125 319.246094 238.039062 326.855469 239.09375 334.351562 C 243.789062 367.910156 266.164062 398.316406 296.496094 413.457031 C 326.828125 428.601562 364.238281 428.308594 394.671875 413.378906 C 409.179688 406.246094 422.203125 395.914062 431.855469 382.96875 C 437.527344 375.371094 441.878906 367.003906 444.980469 358.175781 C 445.125 357.789062 445.257812 357.390625 445.382812 356.988281 C 446.621094 353.328125 447.652344 349.597656 448.46875 345.804688 C 448.59375 345.257812 448.707031 344.695312 448.8125 344.148438 C 449.808594 339.148438 450.449219 334.054688 450.730469 328.925781 C 450.746094 328.90625 450.746094 328.878906 450.730469 328.859375 C 452.003906 306.609375 446.78125 283.648438 436.058594 264.050781 C 433.449219 259.289062 430.492188 254.648438 427.222656 250.253906 C 436.863281 261.425781 444.414062 274.359375 449.042969 288.367188 C 453.382812 301.503906 455.042969 315.550781 453.988281 329.335938 " fill-opacity="1" fill-rule="nonzero"/><path fill="#c9c1ad" d="M 374.46875 230.78125 C 374.203125 230.699219 373.953125 230.628906 373.6875 230.558594 C 373.703125 230.480469 373.714844 230.398438 373.722656 230.320312 C 373.972656 230.457031 374.230469 230.617188 374.46875 230.78125 " fill-opacity="1" fill-rule="nonzero"/><path fill="#c9c1ad" d="M 422.890625 274.726562 C 417.113281 267.160156 410.195312 260.410156 403.34375 253.75 C 396.519531 247.121094 389.535156 240.371094 380.910156 236.351562 C 378.800781 235.367188 376.175781 233.855469 376.5625 231.554688 C 396.175781 240.371094 412.714844 255.808594 422.890625 274.726562 " fill-opacity="1" fill-rule="nonzero"/><path fill="#c9c1ad" d="M 355.316406 227.34375 L 355.269531 227.34375 C 355.316406 226.941406 355.363281 226.53125 355.394531 226.117188 L 355.441406 226.117188 C 355.394531 226.53125 355.351562 226.933594 355.316406 227.34375 " fill-opacity="1" fill-rule="nonzero"/><path fill="#c9c1ad" d="M 438.308594 324.828125 C 438.28125 325.277344 438.261719 325.726562 438.226562 326.179688 C 437.851562 331.777344 436.882812 337.351562 435.398438 342.789062 C 435.351562 342.96875 435.292969 343.152344 435.246094 343.335938 C 434.25 346.886719 433.011719 350.363281 431.574219 353.738281 C 431.410156 354.09375 431.257812 354.4375 431.113281 354.777344 C 429.0625 359.378906 426.601562 363.773438 423.746094 367.910156 C 406.832031 392.363281 377.632812 407.050781 347.953125 409.164062 C 340.722656 409.675781 333.417969 409.507812 326.316406 408.113281 C 299.167969 402.753906 277.320312 386.023438 264.902344 361.851562 C 253.199219 339.054688 248.0625 311.40625 256.929688 286.753906 C 265.089844 264.058594 282.625 244.589844 304.9375 235.402344 C 316.621094 230.585938 329.230469 228.578125 341.800781 227.160156 C 342.695312 227.058594 343.574219 226.957031 344.46875 226.863281 C 344.6875 226.84375 344.917969 226.816406 345.128906 226.796875 C 345.109375 226.933594 345.097656 227.066406 345.089844 227.207031 C 343.988281 227.238281 342.875 227.3125 341.773438 227.390625 C 315.304688 229.347656 289.53125 242.222656 273.390625 263.359375 C 250.546875 293.269531 248.910156 337.820312 269.96875 369.003906 C 291.023438 400.195312 333.417969 415.34375 369.3125 404.035156 C 379.597656 400.796875 389.199219 395.667969 398.121094 389.617188 C 407.941406 382.96875 417.125 375.015625 423.390625 364.941406 C 425.535156 361.507812 427.300781 357.859375 428.753906 354.085938 C 428.902344 353.722656 429.027344 353.359375 429.167969 353.003906 C 430.414062 349.605469 431.410156 346.128906 432.199219 342.589844 C 432.234375 342.453125 432.273438 342.316406 432.292969 342.191406 C 432.417969 341.628906 432.53125 341.058594 432.648438 340.5 C 433.664062 335.390625 434.277344 330.207031 434.46875 324.988281 C 434.488281 324.359375 434.515625 323.734375 434.515625 323.101562 C 434.800781 306.90625 431.101562 290.628906 423.679688 276.222656 C 423.417969 275.722656 423.152344 275.226562 422.890625 274.726562 C 425.050781 277.539062 427.050781 280.46875 428.832031 283.535156 C 436.050781 296.011719 439.050781 310.457031 438.308594 324.828125 " fill-opacity="1" fill-rule="nonzero"/><g fill="#000000" fill-opacity="1"><g transform="translate(82.951396, 598.13122)"><g><path d="M 219.8125 -56.96875 C 220.539062 -56.8125 221.113281 -56.507812 221.53125 -56.0625 C 221.957031 -55.613281 222.050781 -55.175781 221.8125 -54.75 C 221.539062 -54.351562 221.238281 -54.109375 220.90625 -54.015625 C 220.570312 -53.929688 220.207031 -53.921875 219.8125 -53.984375 C 219.332031 -53.984375 218.835938 -54.015625 218.328125 -54.078125 C 211.148438 -54.285156 201.644531 -53.867188 189.8125 -52.828125 C 177.988281 -51.785156 168.457031 -50.769531 161.21875 -49.78125 C 155.644531 -49.050781 150.070312 -48.265625 144.5 -47.421875 C 144.375 -47.421875 144.207031 -47.378906 144 -47.296875 C 141.675781 -46.960938 139.550781 -46.101562 137.625 -44.71875 C 130.539062 -39.894531 123.210938 -35.519531 115.640625 -31.59375 C 108.078125 -27.675781 100.363281 -24.03125 92.5 -20.65625 C 79.75 -15.019531 66.710938 -10.109375 53.390625 -5.921875 C 50.679688 -5.203125 48.691406 -3.546875 47.421875 -0.953125 C 41.515625 10.835938 35.351562 22.367188 28.9375 33.640625 C 23.238281 43.671875 17.769531 53.828125 12.53125 64.109375 C 12.53125 64.171875 12.5 64.234375 12.4375 64.296875 C 12.21875 64.835938 11.945312 65.273438 11.625 65.609375 C 11.082031 66.054688 10.445312 66.21875 9.71875 66.09375 C 9.320312 66.21875 8.929688 66.21875 8.546875 66.09375 C 7.734375 65.769531 7.328125 65.171875 7.328125 64.296875 C 7.410156 62.847656 7.875 61.488281 8.71875 60.21875 C 8.78125 60.15625 8.8125 60.082031 8.8125 60 C 14.125 50.46875 19.347656 40.941406 24.484375 31.421875 C 29.617188 21.898438 34.582031 12.238281 39.375 2.4375 C 39.769531 1.625 40.164062 0.796875 40.5625 -0.046875 C 40.707031 -0.460938 40.867188 -0.898438 41.046875 -1.359375 C 40.597656 -1.472656 40.175781 -1.578125 39.78125 -1.671875 C 39.03125 -1.523438 38.296875 -1.316406 37.578125 -1.046875 C 37.304688 -0.984375 37.046875 -0.890625 36.796875 -0.765625 C 27.515625 1.878906 18.128906 4.140625 8.640625 6.015625 C 2.066406 7.191406 -4.535156 8.019531 -11.171875 8.5 C -11.503906 8.5625 -11.804688 8.59375 -12.078125 8.59375 C -12.734375 8.65625 -13.394531 8.6875 -14.0625 8.6875 C -16.625 8.6875 -19.109375 8.289062 -21.515625 7.5 C -23.359375 6.84375 -24.457031 5.796875 -24.8125 4.359375 C -25.175781 2.929688 -24.742188 1.390625 -23.515625 -0.265625 C -21.859375 -2.203125 -19.894531 -3.785156 -17.625 -5.015625 C -12.507812 -8.210938 -7.128906 -10.835938 -1.484375 -12.890625 C 13.546875 -18.585938 28.796875 -23.585938 44.265625 -27.890625 C 45.109375 -28.160156 46 -28.40625 46.9375 -28.625 C 48.914062 -29.007812 50.765625 -29.585938 52.484375 -30.359375 C 54.203125 -31.128906 55.5 -32.460938 56.375 -34.359375 C 59.632812 -41.867188 62.769531 -49.378906 65.78125 -56.890625 C 68.789062 -64.410156 71.59375 -72.0625 74.1875 -79.84375 C 74.1875 -79.90625 74.21875 -79.992188 74.28125 -80.109375 C 74.675781 -81.523438 75.203125 -82.851562 75.859375 -84.09375 C 76.128906 -84.519531 76.484375 -84.8125 76.921875 -84.96875 C 77.359375 -85.132812 77.804688 -85.175781 78.265625 -85.09375 C 78.597656 -85.175781 78.957031 -85.175781 79.34375 -85.09375 C 80.34375 -84.851562 80.914062 -84.1875 81.0625 -83.09375 C 81.0625 -81.050781 80.6875 -79.0625 79.9375 -77.125 C 79.9375 -77.070312 79.90625 -76.984375 79.84375 -76.859375 C 76.59375 -66.910156 72.945312 -57.128906 68.90625 -47.515625 C 67.851562 -44.859375 66.765625 -42.238281 65.640625 -39.65625 C 65.222656 -38.71875 64.816406 -37.75 64.421875 -36.75 C 63.910156 -35.582031 63.695312 -34.78125 63.78125 -34.34375 C 63.875 -33.90625 64.1875 -33.695312 64.71875 -33.71875 C 65.25 -33.75 65.890625 -33.90625 66.640625 -34.1875 C 66.878906 -34.238281 67.132812 -34.296875 67.40625 -34.359375 C 70.332031 -35.109375 73.257812 -35.847656 76.1875 -36.578125 C 81.488281 -37.898438 86.820312 -39.226562 92.1875 -40.5625 C 105.332031 -43.664062 118.5625 -46.316406 131.875 -48.515625 C 134.257812 -48.898438 136.34375 -49.816406 138.125 -51.265625 C 141.914062 -54.128906 145.664062 -57.5 149.375 -61.375 C 153.082031 -65.25 156.148438 -69.421875 158.578125 -73.890625 C 161.003906 -78.367188 162.097656 -82.96875 161.859375 -87.6875 C 161.617188 -92.40625 159.445312 -97.082031 155.34375 -101.71875 C 152.695312 -104.5 149.6875 -106.820312 146.3125 -108.6875 C 139.195312 -112.519531 130.648438 -115.332031 120.671875 -117.125 C 110.691406 -118.914062 100 -119.863281 88.59375 -119.96875 C 77.1875 -120.070312 65.765625 -119.488281 54.328125 -118.21875 C 42.890625 -116.957031 32.179688 -115.203125 22.203125 -112.953125 C 12.222656 -110.710938 3.660156 -108.160156 -3.484375 -105.296875 C -9.660156 -102.859375 -15.535156 -99.84375 -21.109375 -96.25 C -23.367188 -94.863281 -25.492188 -93.34375 -27.484375 -91.6875 C -29.472656 -90.03125 -31.253906 -88.132812 -32.828125 -86 C -33.429688 -85.0625 -34.226562 -84.5625 -35.21875 -84.5 C -35.425781 -84.5 -35.664062 -84.5 -35.9375 -84.5 C -36 -84.5 -36.0625 -84.5 -36.125 -84.5 C -36.519531 -84.5 -36.894531 -84.550781 -37.25 -84.65625 C -37.613281 -84.757812 -37.898438 -84.976562 -38.109375 -85.3125 C -38.234375 -85.582031 -38.296875 -85.859375 -38.296875 -86.140625 C -38.296875 -86.429688 -38.265625 -86.679688 -38.203125 -86.890625 C -37.691406 -88.097656 -37 -89.160156 -36.125 -90.078125 C -35.25 -91.003906 -34.359375 -91.90625 -33.453125 -92.78125 C -31.046875 -94.820312 -28.535156 -96.671875 -25.921875 -98.328125 C -23.316406 -99.992188 -20.644531 -101.550781 -17.90625 -103 C -10.882812 -106.726562 -1.90625 -110.082031 9.03125 -113.0625 C 19.976562 -116.050781 32 -118.457031 45.09375 -120.28125 C 58.195312 -122.101562 71.394531 -123.097656 84.6875 -123.265625 C 97.976562 -123.429688 110.425781 -122.550781 122.03125 -120.625 C 133.632812 -118.695312 143.519531 -115.472656 151.6875 -110.953125 C 155.332031 -108.960938 158.601562 -106.414062 161.5 -103.3125 C 165.5625 -98.726562 167.867188 -94.195312 168.421875 -89.71875 C 168.984375 -85.25 168.367188 -80.910156 166.578125 -76.703125 C 164.785156 -72.492188 162.3125 -68.484375 159.15625 -64.671875 C 156.007812 -60.859375 152.78125 -57.296875 149.46875 -53.984375 C 149.070312 -53.648438 148.675781 -53.234375 148.28125 -52.734375 C 147.894531 -52.242188 147.734375 -51.832031 147.796875 -51.5 C 147.859375 -51.164062 148.359375 -51.0625 149.296875 -51.1875 C 160.410156 -52.988281 171.503906 -54.347656 182.578125 -55.265625 C 193.660156 -56.191406 204.804688 -56.816406 216.015625 -57.140625 C 216.347656 -57.140625 216.648438 -57.140625 216.921875 -57.140625 L 217.015625 -57.140625 C 217.953125 -57.140625 218.882812 -57.082031 219.8125 -56.96875 Z M 44.765625 -8.71875 C 45.003906 -9.320312 45.453125 -10.179688 46.109375 -11.296875 C 47.046875 -13.078125 48.023438 -15.046875 49.046875 -17.203125 C 50.078125 -19.359375 50.828125 -21.25 51.296875 -22.875 C 51.765625 -24.5 51.53125 -25.390625 50.59375 -25.546875 C 50.019531 -25.453125 49.460938 -25.316406 48.921875 -25.140625 C 48.796875 -25.140625 48.628906 -25.109375 48.421875 -25.046875 C 46.304688 -24.378906 44.179688 -23.75 42.046875 -23.15625 C 36.953125 -21.675781 31.84375 -20.109375 26.71875 -18.453125 C 26.476562 -18.390625 26.222656 -18.296875 25.953125 -18.171875 C 16.785156 -15.367188 7.757812 -12.144531 -1.125 -8.5 C -5.613281 -6.65625 -9.878906 -4.410156 -13.921875 -1.765625 C -15.460938 -0.890625 -16.726562 0.269531 -17.71875 1.71875 C -18.113281 2.320312 -18.226562 2.867188 -18.0625 3.359375 C -17.894531 3.859375 -17.476562 4.242188 -16.8125 4.515625 C -15.425781 4.972656 -14.007812 5.203125 -12.5625 5.203125 C -11.300781 5.203125 -10.035156 5.140625 -8.765625 5.015625 C -8.710938 5.015625 -8.6875 5.015625 -8.6875 5.015625 C -2.113281 4.359375 4.351562 3.289062 10.71875 1.8125 C 20.8125 -0.414062 30.785156 -3.023438 40.640625 -6.015625 C 40.796875 -6.109375 40.90625 -6.15625 40.96875 -6.15625 C 41.75 -6.332031 42.46875 -6.597656 43.125 -6.953125 C 43.789062 -7.316406 44.335938 -7.90625 44.765625 -8.71875 Z M 53.21875 -10.484375 C 59.1875 -12.023438 67.304688 -14.894531 77.578125 -19.09375 C 87.859375 -23.300781 97.738281 -27.75 107.21875 -32.4375 C 116.695312 -37.125 123.15625 -40.988281 126.59375 -44.03125 C 126.144531 -44.03125 125.753906 -44.03125 125.421875 -44.03125 C 125.265625 -44.03125 125.15625 -44.03125 125.09375 -44.03125 C 104.269531 -39.90625 83.65625 -34.992188 63.25 -29.296875 C 61.4375 -28.785156 60.203125 -27.703125 59.546875 -26.046875 C 58.304688 -23.390625 57.082031 -20.765625 55.875 -18.171875 C 54.945312 -16.242188 54.015625 -14.285156 53.078125 -12.296875 C 52.953125 -12.023438 52.875 -11.722656 52.84375 -11.390625 C 52.820312 -11.054688 52.945312 -10.753906 53.21875 -10.484375 Z M 53.21875 -10.484375 "/></g></g></g><g fill="#000000" fill-opacity="1"><g transform="translate(209.716654, 598.13122)"><g><path d="M 32.796875 -23.03125 C 33.503906 -22.625 33.554688 -21.640625 32.953125 -20.078125 C 32.078125 -18.929688 31.144531 -17.859375 30.15625 -16.859375 C 29.164062 -15.867188 28.082031 -14.984375 26.90625 -14.203125 C 26.8125 -14.203125 26.765625 -14.171875 26.765625 -14.109375 C 25.984375 -13.566406 25.15625 -13.097656 24.28125 -12.703125 C 17.070312 -10.109375 13.394531 -11.628906 13.25 -17.265625 C 10.320312 -14.734375 8.363281 -13.179688 7.375 -12.609375 C 4.988281 -11.191406 2.410156 -10.5625 -0.359375 -10.71875 C -2.410156 -10.832031 -3.804688 -11.453125 -4.546875 -12.578125 C -5.285156 -13.710938 -5.21875 -15.25 -4.34375 -17.1875 C -3.007812 -20.226562 -1.125 -22.9375 1.3125 -25.3125 C 4.175781 -27.96875 7.351562 -30.09375 10.84375 -31.6875 C 12.71875 -32.625 14.679688 -32.988281 16.734375 -32.78125 C 18.773438 -32.65625 20.007812 -31.492188 20.4375 -29.296875 C 20.613281 -28.628906 20.445312 -28.039062 19.9375 -27.53125 C 19.269531 -26.925781 18.5 -26.789062 17.625 -27.125 C 17.570312 -27.125 17.488281 -27.140625 17.375 -27.171875 C 17.269531 -27.203125 17.191406 -27.25 17.140625 -27.3125 C 16.265625 -28.507812 15.378906 -29.007812 14.484375 -28.8125 C 13.597656 -28.625 12.660156 -28.226562 11.671875 -27.625 C 7.023438 -24.914062 3.570312 -21.132812 1.3125 -16.28125 C 1.1875 -16.0625 1.109375 -15.820312 1.078125 -15.5625 C 1.054688 -15.3125 1.132812 -15.113281 1.3125 -14.96875 C 1.851562 -14.78125 2.453125 -14.816406 3.109375 -15.078125 C 3.773438 -15.335938 4.441406 -15.710938 5.109375 -16.203125 C 5.773438 -16.703125 6.332031 -17.117188 6.78125 -17.453125 C 6.84375 -17.546875 6.875 -17.59375 6.875 -17.59375 C 9.070312 -19.425781 11.226562 -21.304688 13.34375 -23.234375 C 14.269531 -24.234375 15.425781 -24.789062 16.8125 -24.90625 C 18.800781 -24.90625 19.632812 -24.019531 19.3125 -22.25 C 19.125 -21.582031 18.925781 -20.914062 18.71875 -20.25 C 17.9375 -17.382812 17.90625 -15.703125 18.625 -15.203125 C 19.351562 -14.710938 20.460938 -14.710938 21.953125 -15.203125 C 23.441406 -15.703125 24.929688 -16.65625 26.421875 -18.0625 C 27.921875 -19.46875 29.179688 -20.75 30.203125 -21.90625 C 31.222656 -23.0625 32.085938 -23.4375 32.796875 -23.03125 Z M 32.796875 -23.03125 "/></g></g></g><g fill="#000000" fill-opacity="1"><g transform="translate(239.690044, 598.13122)"><g><path d="M 7.1875 -10.71875 L 7.046875 -10.71875 C 2.679688 -10.78125 -0.191406 -11.75 -1.578125 -13.625 C -2.960938 -15.507812 -2.90625 -18.019531 -1.40625 -21.15625 C -0.132812 -23.539062 1.460938 -25.617188 3.390625 -27.390625 C 4.054688 -27.992188 4.734375 -28.476562 5.421875 -28.84375 C 6.117188 -29.207031 6.90625 -29.390625 7.78125 -29.390625 C 8.289062 -29.472656 8.878906 -29.378906 9.546875 -29.109375 C 9.753906 -29.054688 9.960938 -28.984375 10.171875 -28.890625 C 10.679688 -28.984375 11.179688 -29.148438 11.671875 -29.390625 C 11.785156 -29.472656 11.945312 -29.546875 12.15625 -29.609375 C 13.15625 -30.003906 14.210938 -30.171875 15.328125 -30.109375 C 15.773438 -30.109375 16.242188 -30.109375 16.734375 -30.109375 C 18.503906 -29.835938 19.84375 -29.09375 20.75 -27.875 C 21.65625 -26.65625 21.972656 -25.171875 21.703125 -23.421875 C 21.546875 -22.367188 21.210938 -21.375 20.703125 -20.4375 C 17.234375 -14.226562 12.816406 -10.988281 7.453125 -10.71875 Z M 14.328125 -26.90625 C 11.953125 -26.988281 9.835938 -26.300781 7.984375 -24.84375 C 6.128906 -23.382812 4.75 -21.703125 3.84375 -19.796875 C 2.9375 -17.898438 2.6875 -16.34375 3.09375 -15.125 C 3.5 -13.90625 4.757812 -13.566406 6.875 -14.109375 C 9.25 -14.828125 11.347656 -16.179688 13.171875 -18.171875 C 15.003906 -20.160156 16.125 -22.050781 16.53125 -23.84375 C 16.9375 -25.644531 16.203125 -26.664062 14.328125 -26.90625 Z M 14.328125 -26.90625 "/></g></g></g><g fill="#000000" fill-opacity="1"><g transform="translate(263.695884, 598.13122)"><g><path d="M 21.875 -21.5625 C 22.875 -22.5625 23.703125 -23.117188 24.359375 -23.234375 C 25.023438 -23.359375 25.457031 -23.253906 25.65625 -22.921875 C 25.851562 -22.585938 25.722656 -22.132812 25.265625 -21.5625 C 22.617188 -18.375 19.648438 -15.617188 16.359375 -13.296875 C 13.078125 -10.972656 9.695312 -9.628906 6.21875 -9.265625 C 2.738281 -8.898438 0.632812 -10.800781 -0.09375 -14.96875 C -0.632812 -19.09375 1.863281 -27.5 7.40625 -40.1875 C 12.957031 -52.882812 17.347656 -63.285156 20.578125 -71.390625 C 20.847656 -72.109375 21.253906 -72.738281 21.796875 -73.28125 C 22.515625 -74.007812 23.375 -74.175781 24.375 -73.78125 C 24.695312 -73.632812 25.023438 -73.394531 25.359375 -73.0625 C 25.691406 -72.726562 25.800781 -72.140625 25.6875 -71.296875 C 11.425781 -37.484375 4.519531 -19.097656 4.96875 -16.140625 C 5.425781 -13.179688 7.332031 -12.445312 10.6875 -13.9375 C 14.050781 -15.4375 16.644531 -16.960938 18.46875 -18.515625 C 20.289062 -20.066406 21.425781 -21.082031 21.875 -21.5625 Z M 21.875 -21.5625 "/></g></g></g><g fill="#000000" fill-opacity="1"><g transform="translate(286.255044, 598.13122)"><g><path d="M 32.796875 -23.03125 C 33.503906 -22.625 33.554688 -21.640625 32.953125 -20.078125 C 32.078125 -18.929688 31.144531 -17.859375 30.15625 -16.859375 C 29.164062 -15.867188 28.082031 -14.984375 26.90625 -14.203125 C 26.8125 -14.203125 26.765625 -14.171875 26.765625 -14.109375 C 25.984375 -13.566406 25.15625 -13.097656 24.28125 -12.703125 C 17.070312 -10.109375 13.394531 -11.628906 13.25 -17.265625 C 10.320312 -14.734375 8.363281 -13.179688 7.375 -12.609375 C 4.988281 -11.191406 2.410156 -10.5625 -0.359375 -10.71875 C -2.410156 -10.832031 -3.804688 -11.453125 -4.546875 -12.578125 C -5.285156 -13.710938 -5.21875 -15.25 -4.34375 -17.1875 C -3.007812 -20.226562 -1.125 -22.9375 1.3125 -25.3125 C 4.175781 -27.96875 7.351562 -30.09375 10.84375 -31.6875 C 12.71875 -32.625 14.679688 -32.988281 16.734375 -32.78125 C 18.773438 -32.65625 20.007812 -31.492188 20.4375 -29.296875 C 20.613281 -28.628906 20.445312 -28.039062 19.9375 -27.53125 C 19.269531 -26.925781 18.5 -26.789062 17.625 -27.125 C 17.570312 -27.125 17.488281 -27.140625 17.375 -27.171875 C 17.269531 -27.203125 17.191406 -27.25 17.140625 -27.3125 C 16.265625 -28.507812 15.378906 -29.007812 14.484375 -28.8125 C 13.597656 -28.625 12.660156 -28.226562 11.671875 -27.625 C 7.023438 -24.914062 3.570312 -21.132812 1.3125 -16.28125 C 1.1875 -16.0625 1.109375 -15.820312 1.078125 -15.5625 C 1.054688 -15.3125 1.132812 -15.113281 1.3125 -14.96875 C 1.851562 -14.78125 2.453125 -14.816406 3.109375 -15.078125 C 3.773438 -15.335938 4.441406 -15.710938 5.109375 -16.203125 C 5.773438 -16.703125 6.332031 -17.117188 6.78125 -17.453125 C 6.84375 -17.546875 6.875 -17.59375 6.875 -17.59375 C 9.070312 -19.425781 11.226562 -21.304688 13.34375 -23.234375 C 14.269531 -24.234375 15.425781 -24.789062 16.8125 -24.90625 C 18.800781 -24.90625 19.632812 -24.019531 19.3125 -22.25 C 19.125 -21.582031 18.925781 -20.914062 18.71875 -20.25 C 17.9375 -17.382812 17.90625 -15.703125 18.625 -15.203125 C 19.351562 -14.710938 20.460938 -14.710938 21.953125 -15.203125 C 23.441406 -15.703125 24.929688 -16.65625 26.421875 -18.0625 C 27.921875 -19.46875 29.179688 -20.75 30.203125 -21.90625 C 31.222656 -23.0625 32.085938 -23.4375 32.796875 -23.03125 Z M 32.796875 -23.03125 "/></g></g></g><g fill="#000000" fill-opacity="1"><g transform="translate(316.228434, 598.13122)"><g/></g></g><g fill="#000000" fill-opacity="1"><g transform="translate(350.406229, 598.13122)"><g><path d="M 95.796875 -36.75 C 96.128906 -35.96875 96.328125 -35.140625 96.390625 -34.265625 C 96.566406 -30.679688 96.222656 -26.703125 95.359375 -22.328125 C 94.503906 -17.960938 93.035156 -13.65625 90.953125 -9.40625 C 88.878906 -5.15625 86.144531 -1.523438 82.75 1.484375 C 79.363281 4.503906 75.289062 6.375 70.53125 7.09375 C 63.75 8.09375 57.945312 6.960938 53.125 3.703125 C 50.195312 1.660156 47.847656 -0.882812 46.078125 -3.9375 C 45.410156 -4.988281 44.742188 -6.085938 44.078125 -7.234375 C 43.742188 -7.742188 43.367188 -8.300781 42.953125 -8.90625 C 41.296875 -8.125 39.800781 -7.097656 38.46875 -5.828125 C 38.019531 -5.441406 37.570312 -5.082031 37.125 -4.75 C 37.03125 -4.6875 36.921875 -4.582031 36.796875 -4.4375 C 33.148438 -1.445312 29.304688 1.296875 25.265625 3.796875 C 20.960938 6.328125 16.65625 7.457031 12.34375 7.1875 C 8.632812 6.914062 6.007812 5.585938 4.46875 3.203125 C 2.9375 0.828125 2.773438 -2.242188 3.984375 -6.015625 C 4.703125 -8.335938 5.738281 -10.53125 7.09375 -12.59375 C 8.445312 -14.65625 9.957031 -16.648438 11.625 -18.578125 C 14.09375 -21.410156 16.695312 -24.109375 19.4375 -26.671875 C 22.1875 -29.234375 25.019531 -31.738281 27.9375 -34.1875 C 30.46875 -36.289062 33.0625 -38.335938 35.71875 -40.328125 C 37.644531 -41.742188 38.671875 -43.476562 38.796875 -45.53125 C 39.453125 -52.15625 40.882812 -58.847656 43.09375 -65.609375 C 44.53125 -70.242188 46.679688 -74.75 49.546875 -79.125 C 54.429688 -86.507812 60.789062 -89.988281 68.625 -89.5625 C 72.550781 -89.5 75.867188 -88.414062 78.578125 -86.3125 C 83.429688 -82.175781 83.765625 -76.628906 79.578125 -69.671875 C 77.640625 -66.835938 75.347656 -64.1875 72.703125 -61.71875 C 70.203125 -59.332031 67.585938 -57.078125 64.859375 -54.953125 C 62.128906 -52.828125 59.378906 -50.769531 56.609375 -48.78125 C 56.273438 -48.539062 55.941406 -48.316406 55.609375 -48.109375 C 53.078125 -46.234375 50.59375 -44.378906 48.15625 -42.546875 C 47.09375 -41.878906 46.519531 -41.050781 46.4375 -40.0625 C 46.375 -39.1875 46.34375 -38.328125 46.34375 -37.484375 C 46.28125 -34.828125 46.332031 -32.21875 46.5 -29.65625 C 46.664062 -27.09375 47.140625 -24.648438 47.921875 -22.328125 C 48.015625 -22.273438 48.117188 -22.21875 48.234375 -22.15625 C 48.296875 -22.09375 48.328125 -22.0625 48.328125 -22.0625 C 49.867188 -22.84375 51.226562 -23.789062 52.40625 -24.90625 C 52.820312 -25.238281 53.226562 -25.617188 53.625 -26.046875 C 62.09375 -32.859375 70.769531 -39.351562 79.65625 -45.53125 C 80.925781 -46.375 82.222656 -47.203125 83.546875 -48.015625 C 84.878906 -48.859375 86.238281 -49.191406 87.625 -49.015625 C 88.4375 -48.953125 88.960938 -48.617188 89.203125 -48.015625 C 89.347656 -47.535156 89.285156 -47.148438 89.015625 -46.859375 C 88.742188 -46.578125 88.445312 -46.300781 88.125 -46.03125 C 87.332031 -45.363281 86.53125 -44.695312 85.71875 -44.03125 C 84.9375 -43.488281 84.1875 -42.890625 83.46875 -42.234375 C 81.800781 -40.960938 80.171875 -39.664062 78.578125 -38.34375 C 69.835938 -31.320312 61.113281 -24.269531 52.40625 -17.1875 C 51.070312 -16.125 50.304688 -15.289062 50.109375 -14.6875 C 49.921875 -14.09375 50.066406 -13.265625 50.546875 -12.203125 C 51.992188 -8.679688 53.878906 -5.535156 56.203125 -2.765625 C 58.066406 -0.554688 60.382812 1.101562 63.15625 2.21875 C 67.019531 3.539062 70.503906 3.535156 73.609375 2.203125 C 76.710938 0.878906 79.394531 -1.300781 81.65625 -4.34375 C 83.914062 -7.382812 85.722656 -10.8125 87.078125 -14.625 C 88.429688 -18.4375 89.273438 -22.148438 89.609375 -25.765625 C 89.941406 -29.390625 89.71875 -32.421875 88.9375 -34.859375 C 88.9375 -35.191406 88.90625 -35.492188 88.84375 -35.765625 C 88.6875 -36.148438 88.609375 -36.554688 88.609375 -36.984375 C 88.609375 -37.429688 88.757812 -37.804688 89.0625 -38.109375 C 89.363281 -38.410156 89.742188 -38.625 90.203125 -38.75 C 93.066406 -39.5625 94.929688 -38.894531 95.796875 -36.75 Z M 55.015625 -74.96875 C 53.753906 -72.695312 52.707031 -70.414062 51.875 -68.125 C 51.050781 -65.84375 50.304688 -63.539062 49.640625 -61.21875 C 49.429688 -60.375 49.238281 -59.484375 49.0625 -58.546875 C 48.507812 -56.222656 48.039062 -53.875 47.65625 -51.5 C 47.5 -50.957031 47.625 -50.601562 48.03125 -50.4375 C 48.4375 -50.269531 48.898438 -50.351562 49.421875 -50.6875 C 52.609375 -52.882812 55.722656 -55.15625 58.765625 -57.5 C 61.816406 -59.851562 64.742188 -62.421875 67.546875 -65.203125 C 69.597656 -67.273438 71.285156 -69.503906 72.609375 -71.890625 C 75.597656 -78.128906 74.5 -82.410156 69.3125 -84.734375 C 66.8125 -85.785156 64.203125 -85.210938 61.484375 -83.015625 C 60.066406 -81.898438 58.84375 -80.660156 57.8125 -79.296875 C 56.789062 -77.941406 55.859375 -76.5 55.015625 -74.96875 Z M 38.96875 -13.875 C 40.300781 -15.019531 40.738281 -16.257812 40.28125 -17.59375 C 39.070312 -22.289062 38.378906 -27.21875 38.203125 -32.375 C 38.203125 -32.644531 38.128906 -32.972656 37.984375 -33.359375 C 37.859375 -33.628906 37.765625 -33.960938 37.703125 -34.359375 C 33.660156 -31.316406 29.929688 -28.191406 26.515625 -24.984375 C 23.097656 -21.773438 19.925781 -18.375 17 -14.78125 C 14.289062 -11.46875 12.46875 -7.957031 11.53125 -4.25 C 11.070312 -2.257812 11.3125 -0.523438 12.25 0.953125 C 13.300781 2.785156 15.125 3.070312 17.71875 1.8125 C 19.101562 1.238281 20.429688 0.515625 21.703125 -0.359375 C 26.671875 -3.796875 31.476562 -7.503906 36.125 -11.484375 C 37.03125 -12.296875 37.976562 -13.09375 38.96875 -13.875 Z M 38.96875 -13.875 "/></g></g></g><g fill="#000000" fill-opacity="1"><g transform="translate(444.892443, 598.13122)"><g/></g></g><g fill="#000000" fill-opacity="1"><g transform="translate(479.070238, 598.13122)"><g><path d="M 168.59375 -70.390625 C 168.257812 -70.328125 167.894531 -70.328125 167.5 -70.390625 C 167.113281 -70.453125 166.753906 -70.617188 166.421875 -70.890625 C 166.035156 -71.285156 165.867188 -71.644531 165.921875 -71.96875 C 165.984375 -72.300781 166.117188 -72.601562 166.328125 -72.875 C 169.492188 -77.96875 172.238281 -83.304688 174.5625 -88.890625 C 176.039062 -92.328125 177.335938 -95.867188 178.453125 -99.515625 C 179.171875 -101.773438 179.226562 -104.203125 178.625 -106.796875 C 178.050781 -109.566406 176.394531 -111.523438 173.65625 -112.671875 C 171.550781 -113.453125 169.394531 -113.875 167.1875 -113.9375 C 166.800781 -113.9375 166.410156 -113.9375 166.015625 -113.9375 C 161.378906 -113.75 156.875 -113.082031 152.5 -111.9375 C 144.9375 -110.101562 137.617188 -107.820312 130.546875 -105.09375 C 123.484375 -102.363281 116.570312 -99.390625 109.8125 -96.171875 C 80.1875 -81.753906 53.664062 -63.546875 30.25 -41.546875 C 24.34375 -36.242188 19.171875 -30.304688 14.734375 -23.734375 C 13.203125 -21.410156 11.847656 -18.953125 10.671875 -16.359375 C 10.003906 -14.921875 9.535156 -13.367188 9.265625 -11.703125 C 8.273438 -6.335938 10.597656 -2.332031 16.234375 0.3125 C 20.992188 2.507812 25.832031 3.75 30.75 4.03125 C 34.601562 4.351562 38.351562 4.515625 42 4.515625 C 43.71875 4.515625 45.375 4.441406 46.96875 4.296875 C 70.175781 4.054688 92.09375 1.039062 112.71875 -4.75 C 113.039062 -4.863281 113.367188 -4.953125 113.703125 -5.015625 C 115.085938 -5.492188 116.550781 -5.875 118.09375 -6.15625 C 118.488281 -6.207031 119.144531 -6.265625 120.0625 -6.328125 C 120.976562 -6.390625 121.847656 -6.335938 122.671875 -6.171875 C 123.503906 -6.003906 124.023438 -5.617188 124.234375 -5.015625 C 124.296875 -4.679688 124.242188 -4.429688 124.078125 -4.265625 C 123.910156 -4.109375 123.664062 -4 123.34375 -3.9375 C 122.070312 -3.601562 120.816406 -3.269531 119.578125 -2.9375 C 115.847656 -1.945312 112.128906 -0.984375 108.421875 -0.046875 C 87.535156 5.316406 65.847656 7.925781 43.359375 7.78125 C 38.710938 7.78125 34.070312 7.6875 29.4375 7.5 C 24.21875 7.289062 18.988281 6.191406 13.75 4.203125 C 3.3125 0.160156 -0.335938 -6.5 2.796875 -15.78125 C 4.066406 -19.488281 5.863281 -22.910156 8.1875 -26.046875 C 11.40625 -30.679688 14.972656 -34.988281 18.890625 -38.96875 C 22.816406 -42.945312 26.90625 -46.789062 31.15625 -50.5 C 50.113281 -67.195312 70.96875 -81.546875 93.71875 -93.546875 C 100.6875 -97.191406 107.78125 -100.585938 115 -103.734375 C 122.21875 -106.890625 129.671875 -109.671875 137.359375 -112.078125 C 143.804688 -114.128906 150.4375 -115.679688 157.25 -116.734375 C 159.988281 -117.128906 162.71875 -117.328125 165.4375 -117.328125 C 167.207031 -117.328125 169 -117.265625 170.8125 -117.140625 C 172.914062 -116.929688 175.023438 -116.492188 177.140625 -115.828125 C 182.867188 -113.785156 185.789062 -110.003906 185.90625 -104.484375 C 185.90625 -102.046875 185.578125 -99.695312 184.921875 -97.4375 C 183.535156 -93.0625 181.832031 -88.851562 179.8125 -84.8125 C 177.789062 -80.78125 175.617188 -76.832031 173.296875 -72.96875 C 172.628906 -71.644531 171.5625 -70.785156 170.09375 -70.390625 C 169.632812 -70.328125 169.210938 -70.328125 168.828125 -70.390625 Z M 168.59375 -70.390625 "/></g></g></g><g fill="#000000" fill-opacity="1"><g transform="translate(607.86988, 598.13122)"><g><path d="M 32.796875 -23.03125 C 33.503906 -22.625 33.554688 -21.640625 32.953125 -20.078125 C 32.078125 -18.929688 31.144531 -17.859375 30.15625 -16.859375 C 29.164062 -15.867188 28.082031 -14.984375 26.90625 -14.203125 C 26.8125 -14.203125 26.765625 -14.171875 26.765625 -14.109375 C 25.984375 -13.566406 25.15625 -13.097656 24.28125 -12.703125 C 17.070312 -10.109375 13.394531 -11.628906 13.25 -17.265625 C 10.320312 -14.734375 8.363281 -13.179688 7.375 -12.609375 C 4.988281 -11.191406 2.410156 -10.5625 -0.359375 -10.71875 C -2.410156 -10.832031 -3.804688 -11.453125 -4.546875 -12.578125 C -5.285156 -13.710938 -5.21875 -15.25 -4.34375 -17.1875 C -3.007812 -20.226562 -1.125 -22.9375 1.3125 -25.3125 C 4.175781 -27.96875 7.351562 -30.09375 10.84375 -31.6875 C 12.71875 -32.625 14.679688 -32.988281 16.734375 -32.78125 C 18.773438 -32.65625 20.007812 -31.492188 20.4375 -29.296875 C 20.613281 -28.628906 20.445312 -28.039062 19.9375 -27.53125 C 19.269531 -26.925781 18.5 -26.789062 17.625 -27.125 C 17.570312 -27.125 17.488281 -27.140625 17.375 -27.171875 C 17.269531 -27.203125 17.191406 -27.25 17.140625 -27.3125 C 16.265625 -28.507812 15.378906 -29.007812 14.484375 -28.8125 C 13.597656 -28.625 12.660156 -28.226562 11.671875 -27.625 C 7.023438 -24.914062 3.570312 -21.132812 1.3125 -16.28125 C 1.1875 -16.0625 1.109375 -15.820312 1.078125 -15.5625 C 1.054688 -15.3125 1.132812 -15.113281 1.3125 -14.96875 C 1.851562 -14.78125 2.453125 -14.816406 3.109375 -15.078125 C 3.773438 -15.335938 4.441406 -15.710938 5.109375 -16.203125 C 5.773438 -16.703125 6.332031 -17.117188 6.78125 -17.453125 C 6.84375 -17.546875 6.875 -17.59375 6.875 -17.59375 C 9.070312 -19.425781 11.226562 -21.304688 13.34375 -23.234375 C 14.269531 -24.234375 15.425781 -24.789062 16.8125 -24.90625 C 18.800781 -24.90625 19.632812 -24.019531 19.3125 -22.25 C 19.125 -21.582031 18.925781 -20.914062 18.71875 -20.25 C 17.9375 -17.382812 17.90625 -15.703125 18.625 -15.203125 C 19.351562 -14.710938 20.460938 -14.710938 21.953125 -15.203125 C 23.441406 -15.703125 24.929688 -16.65625 26.421875 -18.0625 C 27.921875 -19.46875 29.179688 -20.75 30.203125 -21.90625 C 31.222656 -23.0625 32.085938 -23.4375 32.796875 -23.03125 Z M 32.796875 -23.03125 "/></g></g></g><g fill="#000000" fill-opacity="1"><g transform="translate(637.843302, 598.13122)"><g><path d="M 21.703125 -27.75 C 21.429688 -25.675781 20.453125 -24.320312 18.765625 -23.6875 C 17.078125 -23.050781 16.523438 -23.878906 17.109375 -26.171875 C 17.703125 -28.460938 16.671875 -29.039062 14.015625 -27.90625 C 11.359375 -26.78125 9.171875 -25.359375 7.453125 -23.640625 C 4.804688 -20.929688 2.457031 -18.007812 0.40625 -14.875 C 0.195312 -14.601562 0.03125 -14.378906 -0.09375 -14.203125 C -0.695312 -13.328125 -1.300781 -12.492188 -1.90625 -11.703125 C -2.289062 -11.160156 -2.742188 -10.820312 -3.265625 -10.6875 C -3.796875 -10.550781 -4.335938 -10.53125 -4.890625 -10.625 C -5.398438 -10.6875 -5.789062 -10.878906 -6.0625 -11.203125 C -6.332031 -11.535156 -6.363281 -11.929688 -6.15625 -12.390625 C -5.820312 -13.203125 -5.425781 -14.03125 -4.96875 -14.875 C -2.257812 -19.90625 0.492188 -24.953125 3.296875 -30.015625 C 3.359375 -30.078125 3.390625 -30.140625 3.390625 -30.203125 C 3.785156 -30.984375 4.253906 -31.707031 4.796875 -32.375 C 5.398438 -33.03125 6.09375 -33.296875 6.875 -33.171875 C 7.65625 -33.054688 8.179688 -32.59375 8.453125 -31.78125 C 8.785156 -30.726562 9.070312 -30.132812 9.3125 -30 C 9.550781 -29.863281 10.09375 -29.960938 10.9375 -30.296875 C 12.75 -30.953125 14.515625 -31.414062 16.234375 -31.6875 C 17.953125 -31.957031 19.359375 -31.890625 20.453125 -31.484375 C 21.554688 -31.078125 21.972656 -29.832031 21.703125 -27.75 Z M 21.703125 -27.75 "/></g></g></g><g fill="#000000" fill-opacity="1"><g transform="translate(660.447631, 598.13122)"><g><path d="M 21.875 -21.5625 C 22.875 -22.5625 23.703125 -23.117188 24.359375 -23.234375 C 25.023438 -23.359375 25.457031 -23.253906 25.65625 -22.921875 C 25.851562 -22.585938 25.722656 -22.132812 25.265625 -21.5625 C 22.617188 -18.375 19.648438 -15.617188 16.359375 -13.296875 C 13.078125 -10.972656 9.695312 -9.628906 6.21875 -9.265625 C 2.738281 -8.898438 0.632812 -10.800781 -0.09375 -14.96875 C -0.632812 -19.09375 1.863281 -27.5 7.40625 -40.1875 C 12.957031 -52.882812 17.347656 -63.285156 20.578125 -71.390625 C 20.847656 -72.109375 21.253906 -72.738281 21.796875 -73.28125 C 22.515625 -74.007812 23.375 -74.175781 24.375 -73.78125 C 24.695312 -73.632812 25.023438 -73.394531 25.359375 -73.0625 C 25.691406 -72.726562 25.800781 -72.140625 25.6875 -71.296875 C 11.425781 -37.484375 4.519531 -19.097656 4.96875 -16.140625 C 5.425781 -13.179688 7.332031 -12.445312 10.6875 -13.9375 C 14.050781 -15.4375 16.644531 -16.960938 18.46875 -18.515625 C 20.289062 -20.066406 21.425781 -21.082031 21.875 -21.5625 Z M 21.875 -21.5625 "/></g></g></g><g fill="#000000" fill-opacity="1"><g transform="translate(683.006791, 598.13122)"><g><path d="M 7.1875 -10.71875 L 7.046875 -10.71875 C 2.679688 -10.78125 -0.191406 -11.75 -1.578125 -13.625 C -2.960938 -15.507812 -2.90625 -18.019531 -1.40625 -21.15625 C -0.132812 -23.539062 1.460938 -25.617188 3.390625 -27.390625 C 4.054688 -27.992188 4.734375 -28.476562 5.421875 -28.84375 C 6.117188 -29.207031 6.90625 -29.390625 7.78125 -29.390625 C 8.289062 -29.472656 8.878906 -29.378906 9.546875 -29.109375 C 9.753906 -29.054688 9.960938 -28.984375 10.171875 -28.890625 C 10.679688 -28.984375 11.179688 -29.148438 11.671875 -29.390625 C 11.785156 -29.472656 11.945312 -29.546875 12.15625 -29.609375 C 13.15625 -30.003906 14.210938 -30.171875 15.328125 -30.109375 C 15.773438 -30.109375 16.242188 -30.109375 16.734375 -30.109375 C 18.503906 -29.835938 19.84375 -29.09375 20.75 -27.875 C 21.65625 -26.65625 21.972656 -25.171875 21.703125 -23.421875 C 21.546875 -22.367188 21.210938 -21.375 20.703125 -20.4375 C 17.234375 -14.226562 12.816406 -10.988281 7.453125 -10.71875 Z M 14.328125 -26.90625 C 11.953125 -26.988281 9.835938 -26.300781 7.984375 -24.84375 C 6.128906 -23.382812 4.75 -21.703125 3.84375 -19.796875 C 2.9375 -17.898438 2.6875 -16.34375 3.09375 -15.125 C 3.5 -13.90625 4.757812 -13.566406 6.875 -14.109375 C 9.25 -14.828125 11.347656 -16.179688 13.171875 -18.171875 C 15.003906 -20.160156 16.125 -22.050781 16.53125 -23.84375 C 16.9375 -25.644531 16.203125 -26.664062 14.328125 -26.90625 Z M 14.328125 -26.90625 "/></g></g></g><g fill="#000000" fill-opacity="1"><g transform="translate(707.012631, 598.13122)"><g><path d="M 21.875 -22.921875 C 17.113281 -21.140625 13.679688 -19.691406 11.578125 -18.578125 C 10.035156 -17.828125 9.148438 -17.203125 8.921875 -16.703125 C 8.703125 -16.203125 8.878906 -15.289062 9.453125 -13.96875 C 9.453125 -13.90625 9.492188 -13.816406 9.578125 -13.703125 C 10.242188 -12.097656 10.640625 -10.4375 10.765625 -8.71875 C 10.972656 -5.257812 8.023438 -2.832031 1.921875 -1.4375 C -4.179688 -0.0507812 -8.265625 -0.00390625 -10.328125 -1.296875 C -12.390625 -2.597656 -13.019531 -4.242188 -12.21875 -6.234375 C -11.425781 -8.222656 -9.359375 -10.242188 -6.015625 -12.296875 C -2.671875 -14.347656 -0.4375 -15.820312 0.6875 -16.71875 C 1.820312 -17.625 2.164062 -18.632812 1.71875 -19.75 C 1.5625 -20.144531 1.394531 -20.539062 1.21875 -20.9375 C 0.832031 -21.863281 0.425781 -22.828125 0 -23.828125 C -0.78125 -25.640625 -1.117188 -27.414062 -1.015625 -29.15625 C -0.910156 -30.90625 -0.265625 -32.375 0.921875 -33.5625 C 2.117188 -34.757812 3.96875 -35.398438 6.46875 -35.484375 C 7.882812 -35.546875 9.148438 -35.359375 10.265625 -34.921875 C 11.378906 -34.484375 12.269531 -33.675781 12.9375 -32.5 C 13.476562 -31.6875 13.3125 -30.953125 12.4375 -30.296875 C 11.863281 -29.835938 11.242188 -29.773438 10.578125 -30.109375 C 10.160156 -30.285156 9.753906 -30.539062 9.359375 -30.875 C 9.359375 -30.96875 9.359375 -31.015625 9.359375 -31.015625 C 9.179688 -31.140625 9.015625 -31.257812 8.859375 -31.375 C 8.679688 -31.644531 8.488281 -31.859375 8.28125 -32.015625 C 7.488281 -32.585938 6.691406 -32.757812 5.890625 -32.53125 C 5.097656 -32.300781 4.503906 -31.691406 4.109375 -30.703125 C 3.835938 -29.910156 3.703125 -29.109375 3.703125 -28.296875 C 3.765625 -27.304688 3.992188 -26.34375 4.390625 -25.40625 C 4.660156 -24.832031 4.898438 -24.304688 5.109375 -23.828125 C 5.617188 -22.503906 6.039062 -21.59375 6.375 -21.09375 C 6.707031 -20.59375 7.109375 -20.378906 7.578125 -20.453125 C 8.046875 -20.535156 12.316406 -22.066406 20.390625 -25.046875 C 22.140625 -25.617188 22.632812 -24.910156 21.875 -22.921875 Z M 2.3125 -5.65625 C 4.414062 -6.375 5.300781 -7.789062 4.96875 -9.90625 C 4.96875 -10.050781 4.941406 -10.21875 4.890625 -10.40625 C 4.765625 -11.539062 4.519531 -12.414062 4.15625 -13.03125 C 3.789062 -13.65625 2.976562 -13.632812 1.71875 -12.96875 C -1.414062 -11.195312 -4.3125 -9.117188 -6.96875 -6.734375 C -7.144531 -6.523438 -7.304688 -6.332031 -7.453125 -6.15625 C -7.453125 -6.15625 -7.484375 -6.109375 -7.546875 -6.015625 C -7.734375 -5.773438 -7.765625 -5.503906 -7.640625 -5.203125 C -7.515625 -4.898438 -7.242188 -4.75 -6.828125 -4.75 C -3.722656 -4.269531 -0.675781 -4.570312 2.3125 -5.65625 Z M 2.3125 -5.65625 "/></g></g></g><g fill="#000000" fill-opacity="1"><g transform="translate(196.49572, 691.084783)"><g><path d="M 35.484375 -31.46875 C 34.722656 -31.46875 34.066406 -31.203125 33.515625 -30.671875 C 32.972656 -30.140625 32.6875 -29.492188 32.65625 -28.734375 L 32.65625 -5.203125 C 32.65625 -3.429688 32.757812 -1.757812 32.96875 -0.1875 L 33.0625 0.640625 L 32.65625 0.640625 L 7.796875 -25.90625 L 7.796875 -3.1875 C 7.828125 -2.125 8.300781 -1.335938 9.21875 -0.828125 C 9.644531 -0.578125 10.097656 -0.453125 10.578125 -0.453125 L 11.453125 -0.453125 L 11.453125 0 L 2.046875 0 L 2.046875 -0.453125 L 2.921875 -0.453125 C 3.679688 -0.453125 4.332031 -0.71875 4.875 -1.25 C 5.425781 -1.78125 5.703125 -2.441406 5.703125 -3.234375 L 5.703125 -26.90625 C 5.703125 -28.757812 5.59375 -30.414062 5.375 -31.875 L 5.296875 -32.609375 L 5.75 -32.609375 L 30.609375 -6.0625 L 30.609375 -28.6875 C 30.578125 -29.476562 30.285156 -30.140625 29.734375 -30.671875 C 29.191406 -31.203125 28.539062 -31.46875 27.78125 -31.46875 L 26.90625 -31.46875 L 26.90625 -31.921875 L 36.3125 -31.921875 L 36.3125 -31.46875 Z M 35.484375 -31.46875 "/></g></g></g><g fill="#000000" fill-opacity="1"><g transform="translate(240.098024, 691.084783)"><g><path d="M 33.515625 -31.46875 L 32.796875 -31.46875 C 32.148438 -31.46875 31.59375 -31.257812 31.125 -30.84375 C 30.65625 -30.4375 30.40625 -29.929688 30.375 -29.328125 L 30.375 -11.265625 C 30.375 -7.703125 29.25 -4.828125 27 -2.640625 C 24.75 -0.453125 21.753906 0.640625 18.015625 0.640625 C 14.273438 0.640625 11.238281 -0.445312 8.90625 -2.625 C 6.582031 -4.800781 5.421875 -7.664062 5.421875 -11.21875 L 5.421875 -29.1875 C 5.421875 -30.101562 5.023438 -30.773438 4.234375 -31.203125 C 3.867188 -31.378906 3.460938 -31.46875 3.015625 -31.46875 L 2.28125 -31.46875 L 2.28125 -31.921875 L 11.546875 -31.921875 L 11.546875 -31.46875 L 10.8125 -31.46875 C 10.144531 -31.46875 9.582031 -31.257812 9.125 -30.84375 C 8.664062 -30.4375 8.421875 -29.914062 8.390625 -29.28125 L 8.390625 -11.859375 C 8.390625 -8.546875 9.28125 -5.867188 11.0625 -3.828125 C 12.84375 -1.796875 15.222656 -0.78125 18.203125 -0.78125 C 21.179688 -0.78125 23.597656 -1.742188 25.453125 -3.671875 C 27.304688 -5.597656 28.234375 -8.128906 28.234375 -11.265625 L 28.234375 -29.28125 C 28.203125 -29.914062 27.957031 -30.4375 27.5 -30.84375 C 27.039062 -31.257812 26.476562 -31.46875 25.8125 -31.46875 L 25.078125 -31.46875 L 25.078125 -31.921875 L 33.515625 -31.921875 Z M 33.515625 -31.46875 "/></g></g></g><g fill="#000000" fill-opacity="1"><g transform="translate(281.14626, 691.084783)"><g><path d="M 3.328125 -0.453125 C 4.117188 -0.453125 4.796875 -0.734375 5.359375 -1.296875 C 5.921875 -1.859375 6.21875 -2.535156 6.25 -3.328125 L 6.25 -28.875 C 6.15625 -29.601562 5.832031 -30.21875 5.28125 -30.71875 C 4.738281 -31.21875 4.085938 -31.46875 3.328125 -31.46875 L 2.78125 -31.46875 L 2.734375 -31.921875 L 16.09375 -31.921875 C 17.039062 -31.921875 18.066406 -32.007812 19.171875 -32.1875 C 20.285156 -32.375 21.070312 -32.5625 21.53125 -32.75 L 21.53125 -27 L 21.078125 -27 L 21.078125 -27.828125 C 21.078125 -28.554688 20.820312 -29.175781 20.3125 -29.6875 C 19.8125 -30.207031 19.210938 -30.484375 18.515625 -30.515625 L 9.21875 -30.515625 L 9.21875 -16.421875 L 16.921875 -16.421875 C 17.523438 -16.453125 18.039062 -16.675781 18.46875 -17.09375 C 18.894531 -17.519531 19.109375 -18.054688 19.109375 -18.703125 L 19.109375 -19.34375 L 19.5625 -19.34375 L 19.5625 -12.125 L 19.109375 -12.125 L 19.109375 -12.8125 C 19.109375 -13.425781 18.898438 -13.941406 18.484375 -14.359375 C 18.078125 -14.785156 17.570312 -15.015625 16.96875 -15.046875 L 9.21875 -15.046875 L 9.21875 -1.40625 L 15.734375 -1.40625 C 17.984375 -1.40625 19.703125 -1.90625 20.890625 -2.90625 C 22.078125 -3.914062 23.066406 -5.410156 23.859375 -7.390625 L 24.3125 -7.390625 L 21.671875 0 L 2.734375 0 L 2.734375 -0.453125 Z M 3.328125 -0.453125 "/></g></g></g><g fill="#000000" fill-opacity="1"><g transform="translate(312.707957, 691.084783)"><g><path d="M 2.78125 -1.875 C 2.6875 -2.300781 2.640625 -3.117188 2.640625 -4.328125 C 2.640625 -5.546875 2.867188 -6.835938 3.328125 -8.203125 L 3.734375 -8.203125 C 3.703125 -7.867188 3.6875 -7.535156 3.6875 -7.203125 C 3.6875 -5.347656 4.25 -3.804688 5.375 -2.578125 C 6.5 -1.347656 7.992188 -0.734375 9.859375 -0.734375 C 11.765625 -0.734375 13.332031 -1.3125 14.5625 -2.46875 C 15.800781 -3.625 16.421875 -5.070312 16.421875 -6.8125 C 16.421875 -8.5625 15.828125 -9.984375 14.640625 -11.078125 L 5.890625 -19.203125 C 4.242188 -20.722656 3.421875 -22.5625 3.421875 -24.71875 C 3.421875 -26.875 4.140625 -28.71875 5.578125 -30.25 C 7.023438 -31.789062 8.984375 -32.5625 11.453125 -32.5625 C 12.609375 -32.5625 13.914062 -32.410156 15.375 -32.109375 L 17.15625 -32.109375 L 17.15625 -26.5 L 16.734375 -26.5 C 16.734375 -27.925781 16.238281 -29.066406 15.25 -29.921875 C 14.269531 -30.773438 13.003906 -31.203125 11.453125 -31.203125 C 9.898438 -31.203125 8.597656 -30.679688 7.546875 -29.640625 C 6.492188 -28.609375 5.96875 -27.316406 5.96875 -25.765625 C 5.96875 -24.210938 6.578125 -22.875 7.796875 -21.75 L 16.78125 -13.453125 C 18.300781 -12.054688 19.0625 -10.140625 19.0625 -7.703125 C 19.0625 -5.273438 18.285156 -3.273438 16.734375 -1.703125 C 15.179688 -0.140625 13.113281 0.640625 10.53125 0.640625 C 9.195312 0.640625 7.773438 0.429688 6.265625 0.015625 C 4.765625 -0.390625 3.601562 -1.019531 2.78125 -1.875 Z M 2.78125 -1.875 "/></g></g></g><g fill="#000000" fill-opacity="1"><g transform="translate(339.617603, 691.084783)"><g><path d="M 26.859375 -27.875 C 26.859375 -28.601562 26.597656 -29.234375 26.078125 -29.765625 C 25.566406 -30.296875 24.960938 -30.578125 24.265625 -30.609375 L 15.59375 -30.609375 L 15.59375 -3.28125 C 15.625 -2.488281 15.921875 -1.816406 16.484375 -1.265625 C 17.046875 -0.722656 17.722656 -0.453125 18.515625 -0.453125 L 19.109375 -0.453125 L 19.109375 0 L 9.125 0 L 9.125 -0.453125 L 9.71875 -0.453125 C 10.507812 -0.453125 11.1875 -0.722656 11.75 -1.265625 C 12.3125 -1.816406 12.609375 -2.472656 12.640625 -3.234375 L 12.640625 -30.609375 L 3.96875 -30.609375 C 3.238281 -30.578125 2.625 -30.296875 2.125 -29.765625 C 1.625 -29.234375 1.375 -28.601562 1.375 -27.875 L 1.375 -27.09375 L 0.90625 -27.046875 L 0.90625 -32.796875 C 1.363281 -32.609375 2.15625 -32.421875 3.28125 -32.234375 C 4.40625 -32.054688 5.441406 -31.96875 6.390625 -31.96875 L 21.796875 -31.96875 C 23.285156 -31.96875 24.523438 -32.082031 25.515625 -32.3125 C 26.503906 -32.539062 27.101562 -32.703125 27.3125 -32.796875 L 27.3125 -27.046875 L 26.859375 -27.09375 Z M 26.859375 -27.875 "/></g></g></g><g fill="#000000" fill-opacity="1"><g transform="translate(373.049253, 691.084783)"><g><path d="M 12.125 -30.515625 L 9.21875 -30.515625 L 9.21875 -3.328125 C 9.21875 -2.535156 9.5 -1.859375 10.0625 -1.296875 C 10.625 -0.734375 11.3125 -0.453125 12.125 -0.453125 L 12.671875 -0.453125 L 12.71875 0 L 2.734375 0 L 2.734375 -0.453125 L 3.328125 -0.453125 C 4.117188 -0.453125 4.796875 -0.722656 5.359375 -1.265625 C 5.921875 -1.816406 6.21875 -2.488281 6.25 -3.28125 L 6.25 -28.59375 C 6.21875 -29.382812 5.921875 -30.0625 5.359375 -30.625 C 4.796875 -31.1875 4.117188 -31.46875 3.328125 -31.46875 L 2.734375 -31.46875 L 2.734375 -31.921875 L 15.046875 -31.921875 C 17.816406 -31.921875 19.988281 -31.148438 21.5625 -29.609375 C 23.144531 -28.078125 23.9375 -26.085938 23.9375 -23.640625 C 23.9375 -21.203125 23.179688 -19.09375 21.671875 -17.3125 C 20.171875 -15.53125 18.34375 -14.640625 16.1875 -14.640625 C 16.644531 -14.429688 17.1875 -14.015625 17.8125 -13.390625 C 18.4375 -12.765625 18.988281 -12.117188 19.46875 -11.453125 C 22.082031 -7.710938 23.785156 -5.40625 24.578125 -4.53125 C 25.367188 -3.664062 25.929688 -3.070312 26.265625 -2.75 C 26.597656 -2.4375 26.960938 -2.128906 27.359375 -1.828125 C 27.753906 -1.523438 28.148438 -1.28125 28.546875 -1.09375 C 29.429688 -0.664062 30.375 -0.453125 31.375 -0.453125 L 31.375 0 L 28.875 0 C 27.5625 0 26.34375 -0.234375 25.21875 -0.703125 C 24.09375 -1.171875 23.25 -1.65625 22.6875 -2.15625 C 22.125 -2.664062 21.632812 -3.15625 21.21875 -3.625 C 20.8125 -4.09375 19.679688 -5.664062 17.828125 -8.34375 C 15.972656 -11.019531 14.894531 -12.546875 14.59375 -12.921875 C 14.289062 -13.304688 13.972656 -13.679688 13.640625 -14.046875 C 12.660156 -15.078125 11.6875 -15.59375 10.71875 -15.59375 L 10.71875 -16.046875 C 10.957031 -16.023438 11.273438 -16.015625 11.671875 -16.015625 C 12.066406 -16.015625 12.554688 -16.023438 13.140625 -16.046875 C 16.910156 -16.140625 19.28125 -17.722656 20.25 -20.796875 C 20.4375 -21.398438 20.53125 -21.96875 20.53125 -22.5 C 20.53125 -23.039062 20.53125 -23.382812 20.53125 -23.53125 C 20.46875 -25.570312 19.929688 -27.210938 18.921875 -28.453125 C 17.921875 -29.703125 16.570312 -30.375 14.875 -30.46875 C 14.144531 -30.5 13.226562 -30.515625 12.125 -30.515625 Z M 12.125 -30.515625 "/></g></g></g><g fill="#000000" fill-opacity="1"><g transform="translate(409.171786, 691.084783)"><g><path d="M 32.65625 -0.453125 L 33.015625 -0.453125 L 33.015625 0 L 22.765625 0 L 22.765625 -0.453125 L 23.171875 -0.453125 C 23.804688 -0.453125 24.285156 -0.65625 24.609375 -1.0625 C 24.929688 -1.476562 25.09375 -1.867188 25.09375 -2.234375 C 25.09375 -2.597656 25.03125 -2.960938 24.90625 -3.328125 L 21.984375 -11.078125 L 9.671875 -11.078125 L 6.609375 -3.28125 C 6.492188 -2.914062 6.4375 -2.554688 6.4375 -2.203125 C 6.4375 -1.859375 6.59375 -1.476562 6.90625 -1.0625 C 7.226562 -0.65625 7.707031 -0.453125 8.34375 -0.453125 L 8.765625 -0.453125 L 8.765625 0 L -0.40625 0 L -0.40625 -0.453125 L 0 -0.453125 C 0.757812 -0.453125 1.503906 -0.695312 2.234375 -1.1875 C 2.960938 -1.675781 3.554688 -2.390625 4.015625 -3.328125 L 14.328125 -27.875 C 15.453125 -30.332031 16.015625 -31.894531 16.015625 -32.5625 L 16.421875 -32.5625 L 28.640625 -3.328125 C 29.066406 -2.390625 29.644531 -1.675781 30.375 -1.1875 C 31.101562 -0.695312 31.863281 -0.453125 32.65625 -0.453125 Z M 10.21875 -12.453125 L 21.4375 -12.453125 L 15.96875 -27.09375 Z M 10.21875 -12.453125 "/></g></g></g><g fill="#000000" fill-opacity="1"><g transform="translate(446.890618, 691.084783)"><g/></g></g><g fill="#000000" fill-opacity="1"><g transform="translate(463.538389, 691.084783)"><g><path d="M 13.859375 0 L 2.734375 0 L 2.78125 -0.453125 L 3.328125 -0.453125 C 4.117188 -0.453125 4.796875 -0.722656 5.359375 -1.265625 C 5.921875 -1.816406 6.21875 -2.488281 6.25 -3.28125 L 6.25 -28.640625 C 6.25 -29.429688 5.957031 -30.097656 5.375 -30.640625 C 4.800781 -31.191406 4.117188 -31.46875 3.328125 -31.46875 L 2.78125 -31.46875 L 2.734375 -31.921875 L 11.8125 -31.921875 C 14.945312 -31.921875 17.378906 -31.226562 19.109375 -29.84375 C 20.835938 -28.46875 21.703125 -26.625 21.703125 -24.3125 C 21.703125 -22.488281 21.21875 -20.972656 20.25 -19.765625 C 19.28125 -18.566406 18.09375 -17.769531 16.6875 -17.375 C 19.09375 -17.007812 20.992188 -16.019531 22.390625 -14.40625 C 23.796875 -12.800781 24.5 -10.773438 24.5 -8.328125 C 24.5 -5.878906 23.5625 -3.878906 21.6875 -2.328125 C 19.8125 -0.773438 17.203125 0 13.859375 0 Z M 9.21875 -1.640625 L 13.6875 -1.640625 C 13.71875 -1.640625 13.75 -1.640625 13.78125 -1.640625 C 16.082031 -1.640625 17.875 -2.269531 19.15625 -3.53125 C 20.4375 -4.789062 21.078125 -6.578125 21.078125 -8.890625 C 21.078125 -10.203125 20.851562 -11.347656 20.40625 -12.328125 C 19.96875 -13.316406 19.414062 -14.101562 18.75 -14.6875 C 16.976562 -16.144531 14.332031 -16.875 10.8125 -16.875 C 10.8125 -16.875 10.796875 -16.875 10.765625 -16.875 L 10.765625 -17.28125 C 10.796875 -17.28125 10.9375 -17.28125 11.1875 -17.28125 C 11.445312 -17.28125 11.820312 -17.3125 12.3125 -17.375 C 12.800781 -17.4375 13.347656 -17.539062 13.953125 -17.6875 C 14.566406 -17.84375 15.113281 -18.085938 15.59375 -18.421875 C 16.082031 -18.753906 16.539062 -19.148438 16.96875 -19.609375 C 17.851562 -20.609375 18.296875 -22.101562 18.296875 -24.09375 C 18.296875 -26.09375 17.722656 -27.65625 16.578125 -28.78125 C 15.441406 -29.90625 13.789062 -30.46875 11.625 -30.46875 L 9.21875 -30.46875 Z M 9.21875 -1.640625 "/></g></g></g><g fill="#000000" fill-opacity="1"><g transform="translate(495.510571, 691.084783)"><g><path d="M 7.71875 -27.96875 C 10.75 -31.03125 14.695312 -32.5625 19.5625 -32.5625 C 24.425781 -32.5625 28.378906 -31.03125 31.421875 -27.96875 C 34.460938 -24.914062 35.984375 -20.910156 35.984375 -15.953125 C 35.984375 -11.003906 34.460938 -7 31.421875 -3.9375 C 28.378906 -0.882812 24.425781 0.640625 19.5625 0.640625 C 14.695312 0.640625 10.75 -0.882812 7.71875 -3.9375 C 4.695312 -7 3.1875 -11.003906 3.1875 -15.953125 C 3.1875 -20.910156 4.695312 -24.914062 7.71875 -27.96875 Z M 10.234375 -4.921875 C 12.597656 -2.128906 15.71875 -0.734375 19.59375 -0.734375 C 23.46875 -0.734375 26.582031 -2.128906 28.9375 -4.921875 C 31.289062 -7.722656 32.46875 -11.40625 32.46875 -15.96875 C 32.46875 -18.976562 31.9375 -21.632812 30.875 -23.9375 C 29.8125 -26.25 28.296875 -28.035156 26.328125 -29.296875 C 24.367188 -30.566406 22.113281 -31.203125 19.5625 -31.203125 C 15.707031 -31.203125 12.597656 -29.800781 10.234375 -27 C 7.878906 -24.207031 6.703125 -20.53125 6.703125 -15.96875 C 6.703125 -11.40625 7.878906 -7.722656 10.234375 -4.921875 Z M 10.234375 -4.921875 "/></g></g></g><g fill="#000000" fill-opacity="1"><g transform="translate(538.976053, 691.084783)"><g><path d="M 18.203125 -31.921875 C 23.066406 -31.921875 27.007812 -30.453125 30.03125 -27.515625 C 33.0625 -24.585938 34.578125 -20.734375 34.578125 -15.953125 C 34.578125 -11.179688 33.0625 -7.328125 30.03125 -4.390625 C 27.007812 -1.460938 23.066406 0 18.203125 0 L 2.734375 0 L 2.734375 -0.453125 L 3.328125 -0.453125 C 4.117188 -0.453125 4.796875 -0.734375 5.359375 -1.296875 C 5.921875 -1.859375 6.21875 -2.535156 6.25 -3.328125 L 6.25 -28.875 C 6.25 -29.601562 5.953125 -30.21875 5.359375 -30.71875 C 4.765625 -31.21875 4.085938 -31.46875 3.328125 -31.46875 L 2.78125 -31.46875 L 2.734375 -31.921875 Z M 9.21875 -30.5625 L 9.21875 -1.375 L 18.203125 -1.375 C 20.753906 -1.375 23.007812 -1.976562 24.96875 -3.1875 C 26.925781 -4.40625 28.445312 -6.113281 29.53125 -8.3125 C 30.613281 -10.519531 31.15625 -13.070312 31.15625 -15.96875 C 31.15625 -20.34375 29.957031 -23.867188 27.5625 -26.546875 C 25.175781 -29.222656 22.054688 -30.5625 18.203125 -30.5625 Z M 9.21875 -30.5625 "/></g></g></g><g fill="#000000" fill-opacity="1"><g transform="translate(581.027677, 691.084783)"><g><path d="M 32.65625 -0.453125 L 33.015625 -0.453125 L 33.015625 0 L 22.765625 0 L 22.765625 -0.453125 L 23.171875 -0.453125 C 23.804688 -0.453125 24.285156 -0.65625 24.609375 -1.0625 C 24.929688 -1.476562 25.09375 -1.867188 25.09375 -2.234375 C 25.09375 -2.597656 25.03125 -2.960938 24.90625 -3.328125 L 21.984375 -11.078125 L 9.671875 -11.078125 L 6.609375 -3.28125 C 6.492188 -2.914062 6.4375 -2.554688 6.4375 -2.203125 C 6.4375 -1.859375 6.59375 -1.476562 6.90625 -1.0625 C 7.226562 -0.65625 7.707031 -0.453125 8.34375 -0.453125 L 8.765625 -0.453125 L 8.765625 0 L -0.40625 0 L -0.40625 -0.453125 L 0 -0.453125 C 0.757812 -0.453125 1.503906 -0.695312 2.234375 -1.1875 C 2.960938 -1.675781 3.554688 -2.390625 4.015625 -3.328125 L 14.328125 -27.875 C 15.453125 -30.332031 16.015625 -31.894531 16.015625 -32.5625 L 16.421875 -32.5625 L 28.640625 -3.328125 C 29.066406 -2.390625 29.644531 -1.675781 30.375 -1.1875 C 31.101562 -0.695312 31.863281 -0.453125 32.65625 -0.453125 Z M 10.21875 -12.453125 L 21.4375 -12.453125 L 15.96875 -27.09375 Z M 10.21875 -12.453125 "/></g></g></g><g fill="#000000" fill-opacity="1"><g transform="translate(407.619655, 713.792176)"><g/></g></g><g fill="#000000" fill-opacity="1"><g transform="translate(222.396341, 736.49957)"><g><path d="M 41.046875 -0.453125 L 41.78125 -0.453125 L 41.78125 0 L 31.875 0 L 31.875 -0.40625 L 32.5625 -0.40625 C 33.082031 -0.40625 33.523438 -0.609375 33.890625 -1.015625 C 34.253906 -1.429688 34.40625 -1.882812 34.34375 -2.375 L 32.296875 -25.3125 L 22.71875 -4.015625 C 21.863281 -2.160156 21.34375 -0.609375 21.15625 0.640625 L 20.703125 0.640625 L 9.03125 -24.671875 L 7.0625 -2.375 C 7.007812 -1.882812 7.164062 -1.429688 7.53125 -1.015625 C 7.894531 -0.609375 8.316406 -0.40625 8.796875 -0.40625 L 9.53125 -0.40625 L 9.53125 0 L 0.6875 0 L 0.6875 -0.453125 L 1.40625 -0.453125 C 2.257812 -0.453125 3 -0.707031 3.625 -1.21875 C 4.25 -1.738281 4.625 -2.441406 4.75 -3.328125 L 8.171875 -32.5625 L 8.625 -32.5625 L 21.34375 -5.0625 L 33.796875 -32.5625 L 34.203125 -32.5625 L 37.71875 -3.328125 C 37.875 -2.109375 38.484375 -1.257812 39.546875 -0.78125 C 40.003906 -0.5625 40.503906 -0.453125 41.046875 -0.453125 Z M 41.046875 -0.453125 "/></g></g></g><g fill="#000000" fill-opacity="1"><g transform="translate(270.103402, 736.49957)"><g><path d="M 32.65625 -0.453125 L 33.015625 -0.453125 L 33.015625 0 L 22.765625 0 L 22.765625 -0.453125 L 23.171875 -0.453125 C 23.804688 -0.453125 24.285156 -0.65625 24.609375 -1.0625 C 24.929688 -1.476562 25.09375 -1.867188 25.09375 -2.234375 C 25.09375 -2.597656 25.03125 -2.960938 24.90625 -3.328125 L 21.984375 -11.078125 L 9.671875 -11.078125 L 6.609375 -3.28125 C 6.492188 -2.914062 6.4375 -2.554688 6.4375 -2.203125 C 6.4375 -1.859375 6.59375 -1.476562 6.90625 -1.0625 C 7.226562 -0.65625 7.707031 -0.453125 8.34375 -0.453125 L 8.765625 -0.453125 L 8.765625 0 L -0.40625 0 L -0.40625 -0.453125 L 0 -0.453125 C 0.757812 -0.453125 1.503906 -0.695312 2.234375 -1.1875 C 2.960938 -1.675781 3.554688 -2.390625 4.015625 -3.328125 L 14.328125 -27.875 C 15.453125 -30.332031 16.015625 -31.894531 16.015625 -32.5625 L 16.421875 -32.5625 L 28.640625 -3.328125 C 29.066406 -2.390625 29.644531 -1.675781 30.375 -1.1875 C 31.101562 -0.695312 31.863281 -0.453125 32.65625 -0.453125 Z M 10.21875 -12.453125 L 21.4375 -12.453125 L 15.96875 -27.09375 Z M 10.21875 -12.453125 "/></g></g></g><g fill="#000000" fill-opacity="1"><g transform="translate(307.822225, 736.49957)"><g><path d="M 18.203125 -31.921875 C 23.066406 -31.921875 27.007812 -30.453125 30.03125 -27.515625 C 33.0625 -24.585938 34.578125 -20.734375 34.578125 -15.953125 C 34.578125 -11.179688 33.0625 -7.328125 30.03125 -4.390625 C 27.007812 -1.460938 23.066406 0 18.203125 0 L 2.734375 0 L 2.734375 -0.453125 L 3.328125 -0.453125 C 4.117188 -0.453125 4.796875 -0.734375 5.359375 -1.296875 C 5.921875 -1.859375 6.21875 -2.535156 6.25 -3.328125 L 6.25 -28.875 C 6.25 -29.601562 5.953125 -30.21875 5.359375 -30.71875 C 4.765625 -31.21875 4.085938 -31.46875 3.328125 -31.46875 L 2.78125 -31.46875 L 2.734375 -31.921875 Z M 9.21875 -30.5625 L 9.21875 -1.375 L 18.203125 -1.375 C 20.753906 -1.375 23.007812 -1.976562 24.96875 -3.1875 C 26.925781 -4.40625 28.445312 -6.113281 29.53125 -8.3125 C 30.613281 -10.519531 31.15625 -13.070312 31.15625 -15.96875 C 31.15625 -20.34375 29.957031 -23.867188 27.5625 -26.546875 C 25.175781 -29.222656 22.054688 -30.5625 18.203125 -30.5625 Z M 9.21875 -30.5625 "/></g></g></g><g fill="#000000" fill-opacity="1"><g transform="translate(349.873842, 736.49957)"><g><path d="M 12.125 -30.515625 L 9.21875 -30.515625 L 9.21875 -3.328125 C 9.21875 -2.535156 9.5 -1.859375 10.0625 -1.296875 C 10.625 -0.734375 11.3125 -0.453125 12.125 -0.453125 L 12.671875 -0.453125 L 12.71875 0 L 2.734375 0 L 2.734375 -0.453125 L 3.328125 -0.453125 C 4.117188 -0.453125 4.796875 -0.722656 5.359375 -1.265625 C 5.921875 -1.816406 6.21875 -2.488281 6.25 -3.28125 L 6.25 -28.59375 C 6.21875 -29.382812 5.921875 -30.0625 5.359375 -30.625 C 4.796875 -31.1875 4.117188 -31.46875 3.328125 -31.46875 L 2.734375 -31.46875 L 2.734375 -31.921875 L 15.046875 -31.921875 C 17.816406 -31.921875 19.988281 -31.148438 21.5625 -29.609375 C 23.144531 -28.078125 23.9375 -26.085938 23.9375 -23.640625 C 23.9375 -21.203125 23.179688 -19.09375 21.671875 -17.3125 C 20.171875 -15.53125 18.34375 -14.640625 16.1875 -14.640625 C 16.644531 -14.429688 17.1875 -14.015625 17.8125 -13.390625 C 18.4375 -12.765625 18.988281 -12.117188 19.46875 -11.453125 C 22.082031 -7.710938 23.785156 -5.40625 24.578125 -4.53125 C 25.367188 -3.664062 25.929688 -3.070312 26.265625 -2.75 C 26.597656 -2.4375 26.960938 -2.128906 27.359375 -1.828125 C 27.753906 -1.523438 28.148438 -1.28125 28.546875 -1.09375 C 29.429688 -0.664062 30.375 -0.453125 31.375 -0.453125 L 31.375 0 L 28.875 0 C 27.5625 0 26.34375 -0.234375 25.21875 -0.703125 C 24.09375 -1.171875 23.25 -1.65625 22.6875 -2.15625 C 22.125 -2.664062 21.632812 -3.15625 21.21875 -3.625 C 20.8125 -4.09375 19.679688 -5.664062 17.828125 -8.34375 C 15.972656 -11.019531 14.894531 -12.546875 14.59375 -12.921875 C 14.289062 -13.304688 13.972656 -13.679688 13.640625 -14.046875 C 12.660156 -15.078125 11.6875 -15.59375 10.71875 -15.59375 L 10.71875 -16.046875 C 10.957031 -16.023438 11.273438 -16.015625 11.671875 -16.015625 C 12.066406 -16.015625 12.554688 -16.023438 13.140625 -16.046875 C 16.910156 -16.140625 19.28125 -17.722656 20.25 -20.796875 C 20.4375 -21.398438 20.53125 -21.96875 20.53125 -22.5 C 20.53125 -23.039062 20.53125 -23.382812 20.53125 -23.53125 C 20.46875 -25.570312 19.929688 -27.210938 18.921875 -28.453125 C 17.921875 -29.703125 16.570312 -30.375 14.875 -30.46875 C 14.144531 -30.5 13.226562 -30.515625 12.125 -30.515625 Z M 12.125 -30.515625 "/></g></g></g><g fill="#000000" fill-opacity="1"><g transform="translate(385.996367, 736.49957)"><g><path d="M 3.328125 -0.453125 C 4.117188 -0.453125 4.796875 -0.734375 5.359375 -1.296875 C 5.921875 -1.859375 6.21875 -2.535156 6.25 -3.328125 L 6.25 -28.640625 C 6.21875 -29.429688 5.921875 -30.097656 5.359375 -30.640625 C 4.796875 -31.191406 4.117188 -31.46875 3.328125 -31.46875 L 2.734375 -31.46875 L 2.734375 -31.921875 L 12.71875 -31.921875 L 12.71875 -31.46875 L 12.125 -31.46875 C 11.34375 -31.46875 10.671875 -31.191406 10.109375 -30.640625 C 9.546875 -30.097656 9.25 -29.429688 9.21875 -28.640625 L 9.21875 -3.328125 C 9.21875 -2.535156 9.503906 -1.859375 10.078125 -1.296875 C 10.660156 -0.734375 11.34375 -0.453125 12.125 -0.453125 L 12.71875 -0.453125 L 12.71875 0 L 2.734375 0 L 2.734375 -0.453125 Z M 3.328125 -0.453125 "/></g></g></g><g fill="#000000" fill-opacity="1"><g transform="translate(406.657674, 736.49957)"><g><path d="M 18.203125 -31.921875 C 23.066406 -31.921875 27.007812 -30.453125 30.03125 -27.515625 C 33.0625 -24.585938 34.578125 -20.734375 34.578125 -15.953125 C 34.578125 -11.179688 33.0625 -7.328125 30.03125 -4.390625 C 27.007812 -1.460938 23.066406 0 18.203125 0 L 2.734375 0 L 2.734375 -0.453125 L 3.328125 -0.453125 C 4.117188 -0.453125 4.796875 -0.734375 5.359375 -1.296875 C 5.921875 -1.859375 6.21875 -2.535156 6.25 -3.328125 L 6.25 -28.875 C 6.25 -29.601562 5.953125 -30.21875 5.359375 -30.71875 C 4.765625 -31.21875 4.085938 -31.46875 3.328125 -31.46875 L 2.78125 -31.46875 L 2.734375 -31.921875 Z M 9.21875 -30.5625 L 9.21875 -1.375 L 18.203125 -1.375 C 20.753906 -1.375 23.007812 -1.976562 24.96875 -3.1875 C 26.925781 -4.40625 28.445312 -6.113281 29.53125 -8.3125 C 30.613281 -10.519531 31.15625 -13.070312 31.15625 -15.96875 C 31.15625 -20.34375 29.957031 -23.867188 27.5625 -26.546875 C 25.175781 -29.222656 22.054688 -30.5625 18.203125 -30.5625 Z M 9.21875 -30.5625 "/></g></g></g><g fill="#000000" fill-opacity="1"><g transform="translate(448.709298, 736.49957)"><g><path d="M 1.546875 -13.3125 L 1.828125 -14.328125 L 15.5 -14.328125 L 15.78125 -13.3125 L 15.5 -12.265625 L 1.828125 -12.265625 Z M 1.546875 -13.3125 "/></g></g></g><g fill="#000000" fill-opacity="1"><g transform="translate(471.286161, 736.49957)"><g><path d="M 11.546875 -32.5625 C 14.578125 -32.5625 17 -31.753906 18.8125 -30.140625 C 20.625 -28.535156 21.53125 -26.332031 21.53125 -23.53125 C 21.53125 -21.800781 21.101562 -20.039062 20.25 -18.25 C 19.3125 -16.300781 18.367188 -14.734375 17.421875 -13.546875 C 16.484375 -12.359375 15.707031 -11.398438 15.09375 -10.671875 C 14.488281 -9.941406 13.789062 -9.15625 13 -8.3125 C 12.207031 -7.476562 11.53125 -6.773438 10.96875 -6.203125 C 10.40625 -5.628906 9.75 -4.96875 9 -4.21875 C 8.257812 -3.46875 7.707031 -2.910156 7.34375 -2.546875 L 17.828125 -2.546875 C 19.140625 -2.546875 20.148438 -2.820312 20.859375 -3.375 C 21.578125 -3.925781 22.347656 -4.945312 23.171875 -6.4375 L 23.625 -6.4375 L 21.4375 0 L 2.734375 0 L 2.734375 -0.453125 C 5.960938 -3.429688 9.171875 -6.957031 12.359375 -11.03125 C 14.035156 -13.195312 15.410156 -15.378906 16.484375 -17.578125 C 17.566406 -19.785156 18.109375 -21.710938 18.109375 -23.359375 C 18.109375 -25.816406 17.53125 -27.738281 16.375 -29.125 C 15.21875 -30.507812 13.648438 -31.203125 11.671875 -31.203125 C 9.453125 -31.203125 7.710938 -30.609375 6.453125 -29.421875 C 5.191406 -28.234375 4.59375 -26.578125 4.65625 -24.453125 L 4.203125 -24.40625 L 3.375 -29.59375 C 4.5625 -30.78125 6.28125 -31.648438 8.53125 -32.203125 C 9.5625 -32.441406 10.566406 -32.5625 11.546875 -32.5625 Z M 11.546875 -32.5625 "/></g></g></g><g fill="#000000" fill-opacity="1"><g transform="translate(501.753265, 736.49957)"><g><path d="M 5.75 -28.109375 C 7.664062 -31.078125 10.28125 -32.5625 13.59375 -32.5625 C 16.90625 -32.5625 19.519531 -31.078125 21.4375 -28.109375 C 23.351562 -25.148438 24.3125 -21.097656 24.3125 -15.953125 C 24.3125 -10.816406 23.351562 -6.765625 21.4375 -3.796875 C 19.519531 -0.835938 16.90625 0.640625 13.59375 0.640625 C 10.28125 0.640625 7.664062 -0.835938 5.75 -3.796875 C 3.832031 -6.765625 2.875 -10.816406 2.875 -15.953125 C 2.875 -21.097656 3.832031 -25.148438 5.75 -28.109375 Z M 19.109375 -27.109375 C 17.773438 -29.835938 15.9375 -31.203125 13.59375 -31.203125 C 11.25 -31.203125 9.40625 -29.835938 8.0625 -27.109375 C 6.726562 -24.390625 6.0625 -20.671875 6.0625 -15.953125 C 6.0625 -11.242188 6.726562 -7.53125 8.0625 -4.8125 C 9.40625 -2.09375 11.25 -0.734375 13.59375 -0.734375 C 15.9375 -0.734375 17.773438 -2.09375 19.109375 -4.8125 C 20.441406 -7.53125 21.109375 -11.242188 21.109375 -15.953125 C 21.109375 -20.671875 20.441406 -24.390625 19.109375 -27.109375 Z M 19.109375 -27.109375 "/></g></g></g><g fill="#000000" fill-opacity="1"><g transform="translate(534.181518, 736.49957)"><g><path d="M 11.546875 -32.5625 C 14.578125 -32.5625 17 -31.753906 18.8125 -30.140625 C 20.625 -28.535156 21.53125 -26.332031 21.53125 -23.53125 C 21.53125 -21.800781 21.101562 -20.039062 20.25 -18.25 C 19.3125 -16.300781 18.367188 -14.734375 17.421875 -13.546875 C 16.484375 -12.359375 15.707031 -11.398438 15.09375 -10.671875 C 14.488281 -9.941406 13.789062 -9.15625 13 -8.3125 C 12.207031 -7.476562 11.53125 -6.773438 10.96875 -6.203125 C 10.40625 -5.628906 9.75 -4.96875 9 -4.21875 C 8.257812 -3.46875 7.707031 -2.910156 7.34375 -2.546875 L 17.828125 -2.546875 C 19.140625 -2.546875 20.148438 -2.820312 20.859375 -3.375 C 21.578125 -3.925781 22.347656 -4.945312 23.171875 -6.4375 L 23.625 -6.4375 L 21.4375 0 L 2.734375 0 L 2.734375 -0.453125 C 5.960938 -3.429688 9.171875 -6.957031 12.359375 -11.03125 C 14.035156 -13.195312 15.410156 -15.378906 16.484375 -17.578125 C 17.566406 -19.785156 18.109375 -21.710938 18.109375 -23.359375 C 18.109375 -25.816406 17.53125 -27.738281 16.375 -29.125 C 15.21875 -30.507812 13.648438 -31.203125 11.671875 -31.203125 C 9.453125 -31.203125 7.710938 -30.609375 6.453125 -29.421875 C 5.191406 -28.234375 4.59375 -26.578125 4.65625 -24.453125 L 4.203125 -24.40625 L 3.375 -29.59375 C 4.5625 -30.78125 6.28125 -31.648438 8.53125 -32.203125 C 9.5625 -32.441406 10.566406 -32.5625 11.546875 -32.5625 Z M 11.546875 -32.5625 "/></g></g></g><g fill="#000000" fill-opacity="1"><g transform="translate(564.648622, 736.49957)"><g><path d="M 2.78125 -29.234375 C 4.695312 -31.390625 7.3125 -32.46875 10.625 -32.46875 C 13 -32.46875 14.96875 -31.84375 16.53125 -30.59375 C 18.09375 -29.351562 18.875 -27.757812 18.875 -25.8125 C 18.875 -23.863281 18.21875 -22.128906 16.90625 -20.609375 C 15.601562 -19.085938 14.179688 -18.253906 12.640625 -18.109375 C 14.578125 -17.773438 16.242188 -16.882812 17.640625 -15.4375 C 19.046875 -13.988281 19.75 -12.253906 19.75 -10.234375 C 19.75 -8.210938 19.289062 -6.425781 18.375 -4.875 C 16.457031 -1.625 13.421875 0.457031 9.265625 1.375 C 8.109375 1.613281 6.988281 1.734375 5.90625 1.734375 C 4.820312 1.734375 3.765625 1.640625 2.734375 1.453125 L 2.828125 1 C 2.984375 1 3.132812 1 3.28125 1 C 5.5 1 7.601562 0.5625 9.59375 -0.3125 C 11.59375 -1.195312 13.210938 -2.5 14.453125 -4.21875 C 15.703125 -5.9375 16.328125 -7.953125 16.328125 -10.265625 C 16.328125 -12.578125 15.472656 -14.363281 13.765625 -15.625 C 12.066406 -16.882812 9.804688 -17.515625 6.984375 -17.515625 L 7.0625 -17.96875 C 7.0625 -17.96875 7.078125 -17.96875 7.109375 -17.96875 C 9.242188 -17.96875 11.160156 -18.640625 12.859375 -19.984375 C 13.679688 -20.617188 14.3125 -21.414062 14.75 -22.375 C 15.195312 -23.332031 15.421875 -24.328125 15.421875 -25.359375 C 15.421875 -27.035156 14.929688 -28.410156 13.953125 -29.484375 C 12.984375 -30.566406 11.578125 -31.109375 9.734375 -31.109375 C 7.898438 -31.109375 6.488281 -30.566406 5.5 -29.484375 C 4.507812 -28.410156 4.015625 -27.066406 4.015625 -25.453125 C 4.015625 -25.296875 4.015625 -25.144531 4.015625 -25 L 3.5625 -25 Z M 2.78125 -29.234375 "/></g></g></g></svg>